<svg width="28" height="28" viewBox="0 0 28 28" fill="none" xmlns="http://www.w3.org/2000/svg">
<path d="M25.5845 13.9985L25.5842 13.9987H25.5846C25.4375 14.221 25.3841 14.4886 25.3393 14.7677C25.2843 15.1074 25.2264 15.4336 25.1062 15.7533C24.9619 16.1365 24.7194 16.5636 24.2974 16.8978C23.8589 15.7103 23.2205 14.62 22.4236 13.6664C22.9264 13.4654 23.4199 13.4686 23.8257 13.5355C24.1627 13.5913 24.4741 13.7042 24.796 13.8264C25.0598 13.9272 25.3184 14.0148 25.5845 13.9985Z" fill="#1D1D1D"/>
<path d="M20.6882 9.10254L20.6881 9.10279L20.6884 9.10271C20.6721 9.3687 20.7597 9.6272 20.8604 9.89122C20.9827 10.213 21.0956 10.5244 21.1514 10.8614C21.2183 11.2675 21.2214 11.7616 21.0199 12.2648C20.0649 11.4691 18.9731 10.8322 17.7847 10.3953C18.1196 9.96984 18.5485 9.72584 18.9335 9.58089C19.2533 9.46075 19.5794 9.40282 19.9193 9.34777C20.1982 9.30303 20.4659 9.24971 20.6882 9.10254Z" fill="#1D1D1D"/>
<path d="M24.813 18.8199C25.3451 18.8986 25.7686 19.1468 26.085 19.4064C26.3489 19.6233 26.5622 19.8768 26.7798 20.1437C26.9579 20.3627 27.138 20.5679 27.3765 20.6868H24.9738C24.9731 20.0503 24.9177 19.4268 24.813 18.8199Z" fill="#1D1D1D"/>
<path d="M7.31166 9.10287L7.31182 9.10303V9.10278C7.53415 9.24987 7.80188 9.30319 8.08081 9.3481C8.42056 9.40306 8.74671 9.46099 9.06644 9.58105C9.45143 9.726 9.88042 9.97008 10.2153 10.3955C9.02672 10.8323 7.93504 11.4693 6.98007 12.2651C6.77859 11.7619 6.78156 11.2678 6.84863 10.8616C6.90442 10.5247 7.01731 10.2132 7.1396 9.8913C7.2403 9.62745 7.32797 9.36886 7.31166 9.10287Z" fill="#1D1D1D"/>
<path d="M2.41553 13.9989L2.41578 13.999L2.41569 13.9987C2.68169 14.015 2.94027 13.9274 3.20421 13.8267C3.526 13.7044 3.8374 13.5915 4.17434 13.5356C4.58018 13.4688 5.07369 13.4658 5.57644 13.6667C4.77951 14.6202 4.14138 15.7107 3.70267 16.898C3.28068 16.5637 3.03825 16.1369 2.89388 15.7535C2.77374 15.4338 2.71581 15.1076 2.66084 14.7678C2.61602 14.4889 2.56262 14.2211 2.41553 13.9989Z" fill="#1D1D1D"/>
<path d="M0.623779 20.6867C0.862254 20.5678 1.04222 20.3627 1.22054 20.1436C1.43801 19.8768 1.65127 19.6233 1.91512 19.4065C2.23163 19.1468 2.65477 18.8986 3.1871 18.8199C3.08237 19.4267 3.02707 20.0502 3.02641 20.6867H0.623779Z" fill="#1D1D1D"/>
<path d="M14.0001 7.31055V7.31079L14.0003 7.31055C14.1192 7.5491 14.3243 7.72915 14.5435 7.90748C14.8103 8.12494 15.0638 8.3382 15.2806 8.60205C15.5419 8.92054 15.7917 9.34706 15.8687 9.88408C15.2613 9.77984 14.6372 9.72496 14.0002 9.72496C13.3631 9.72496 12.739 9.77984 12.1316 9.88408C12.2086 9.34714 12.4584 8.92054 12.7196 8.60213C12.9365 8.3382 13.19 8.12494 13.4568 7.90739C13.6759 7.72924 13.8811 7.5491 14.0001 7.31055Z" fill="#1D1D1D"/>
<path d="M11.7683 20.6895L12.594 20.6871C12.7025 19.9897 12.4904 19.4527 11.7849 19.5809C11.1905 19.6888 10.5519 20.2794 10.166 20.6871L11.2546 20.6823C11.3759 20.6025 11.6133 20.5115 11.7108 20.5793C11.7473 20.6047 11.7664 20.6407 11.7683 20.6895Z" fill="#1D1D1D"/>
<path d="M15.4814 20.6872H16.5114C16.5605 19.4707 16.3645 18.2146 15.799 17.1278C15.2846 16.1389 14.4344 15.4668 13.3336 15.3044C11.7268 15.0673 10.1054 15.7475 8.73461 16.7207C7.24212 17.7803 6.01019 19.2194 4.93359 20.6872L6.29432 20.6852C7.51933 18.9489 10.3369 16.3129 12.4096 16.2957C13.0702 16.2902 13.7418 16.4452 14.2383 16.8882C14.5981 17.2093 15.0343 17.8327 15.0129 18.3386C15.0002 18.6386 14.734 18.7306 14.4787 18.6377C14.2804 18.5655 14.1403 18.3842 14.0015 18.1936C13.5505 17.5744 12.847 17.2714 12.0754 17.377C11.1551 17.5028 10.0143 18.2174 9.27856 18.8673C8.64405 19.4278 8.06154 20.0412 7.51208 20.6872H8.97506C9.51126 20.0398 10.0775 19.4878 10.8053 19.0344C11.0356 18.891 11.3193 18.7393 11.6174 18.6367C12.3695 18.3782 13.118 18.4437 13.4503 19.3801C13.5809 19.7483 13.6001 20.0712 13.562 20.663L13.562 20.6872H14.5567L14.5593 20.6568C14.56 20.3327 14.5529 20.1143 14.5822 19.7931C14.6073 19.5163 14.6934 19.2295 14.9505 19.1954C15.4969 19.0809 15.4707 20.2965 15.4814 20.6872Z" fill="#1D1D1D"/>
<path d="M17.5946 20.687H18.6332C18.6835 19.5584 18.5868 18.2213 18.2216 17.0538C18.1495 16.8235 18.0672 16.5999 17.9737 16.3865C17.7526 15.8819 17.4551 15.4253 17.1005 15.0032C16.7062 14.5343 16.2365 14.1127 15.707 13.7807C15.5508 13.6827 15.3888 13.5922 15.2215 13.5104V13.5103C15.0555 13.4291 14.8838 13.3565 14.7071 13.2938L14.7065 13.2936C12.6839 12.5754 10.6382 13.0862 8.92227 14.0195C8.58771 14.2015 8.26576 14.3994 7.95922 14.6073C7.65276 14.8151 7.36097 15.0333 7.08657 15.2559L7.08599 15.2564C6.76025 15.5206 6.35268 15.8821 5.94932 16.3094C5.86988 16.3935 5.79143 16.4792 5.71513 16.5658C5.51101 16.7972 5.19648 17.1216 5.28984 17.457C5.36376 17.723 5.70697 17.6446 5.82654 17.553C6.01005 17.4545 6.21161 17.2984 6.38408 17.1525C6.61761 16.9548 6.8382 16.742 7.06943 16.5416C8.0047 15.7308 8.97954 15.1055 9.93978 14.6824C10.1491 14.5902 10.3586 14.5072 10.5674 14.4339C10.7755 14.3608 10.9825 14.2975 11.1877 14.2442L11.1887 14.2439C12.9754 13.78 14.917 14.0805 16.1602 15.5377C17.3577 16.9411 17.5763 18.8199 17.5946 20.687ZM4.70775 19.1003C4.81932 18.9961 4.93304 18.8602 5.05153 18.7098C5.21733 18.4995 5.23398 18.2959 5.16847 18.1488C5.14407 18.094 5.10806 18.0468 5.06431 18.0102C5.02088 17.9739 4.96963 17.948 4.91433 17.9353C4.77919 17.9044 4.6176 17.9528 4.4804 18.1198C4.32523 18.3085 4.11098 18.6313 4.06723 18.9168C4.05907 18.9703 4.05684 19.0223 4.06237 19.0711C4.06772 19.1186 4.08041 19.1637 4.10175 19.2049L4.10192 19.2053L4.102 19.2053C4.13694 19.2723 4.19586 19.3077 4.27447 19.3107C4.29087 19.3112 4.30859 19.3105 4.32746 19.3084C4.34583 19.3064 4.36577 19.3027 4.38695 19.2978L4.38703 19.298L4.38802 19.2977C4.49383 19.2723 4.59963 19.2011 4.70775 19.1003Z" fill="#1D1D1D"/>
<path d="M20.1927 20.6874L20.2001 20.6873H20.2038C20.3125 20.6932 20.5011 20.6432 20.6099 20.4597C20.6315 20.423 20.6502 20.3811 20.6642 20.3334C20.6787 20.285 20.6886 20.23 20.6928 20.1683H20.6929L20.6937 20.1556C20.7762 17.271 19.8927 14.883 18.3927 13.2607C18.1014 12.9457 17.7864 12.6591 17.4504 12.4032C17.1146 12.1475 16.7582 11.9228 16.3842 11.7311L16.3841 11.7312L16.3782 11.7282L16.378 11.7281C15.1173 11.0838 13.6874 10.8363 12.2839 10.9552C12.0101 10.9784 11.738 11.0154 11.4691 11.0659C11.1996 11.1166 10.9323 11.1809 10.6689 11.2586L10.6652 11.2598C9.2218 11.6867 7.87863 12.5342 6.78407 13.6463C6.57089 13.8629 6.36719 14.0893 6.17453 14.3242C6.0787 14.4409 5.98542 14.5599 5.89502 14.6807C6.66261 14.0184 7.48614 13.4374 8.34751 12.9759C8.54148 12.872 8.73661 12.7743 8.93232 12.6839C9.12828 12.5931 9.3267 12.5085 9.52719 12.4306L9.52777 12.4303L9.52835 12.4301C10.2893 12.1343 11.0395 11.9457 11.7899 11.8614C12.5403 11.7771 13.2911 11.7971 14.0536 11.9183C14.5962 12.0047 15.1259 12.1468 15.603 12.3455C15.6956 12.3841 15.7867 12.425 15.8759 12.4683C15.9639 12.511 16.0506 12.5563 16.1354 12.6043H16.1356L16.1369 12.6049L16.1368 12.605C17.8167 13.5249 18.9838 15.4124 19.4978 17.5435C19.598 17.9592 19.6735 18.3837 19.723 18.8114C19.7726 19.2389 19.7963 19.6712 19.7933 20.1025V20.1027L19.7931 20.1275C19.8016 20.3583 19.8808 20.5514 20.0163 20.6383C20.0415 20.6545 20.0689 20.6671 20.098 20.6753H20.0981C20.1278 20.6837 20.1594 20.6879 20.1927 20.6874Z" fill="#1D1D1D"/>
<path d="M17.189 11.0737C21.2279 12.4078 24.1468 16.2059 24.1637 20.6872H22.1653C22.2976 16.7727 20.5891 13.2392 17.189 11.0737Z" fill="#1D1D1D"/>
<circle cx="21.7763" cy="19.0946" r="5.6" fill="white"/>
<path d="M19.1287 18.924L20.8937 20.689L24.4237 17.159" stroke="#0033A1" stroke-width="1.25" stroke-miterlimit="10" stroke-linecap="round" stroke-linejoin="round"/>
</svg>
