<svg width="28" height="28" viewBox="0 0 28 28" fill="none" xmlns="http://www.w3.org/2000/svg">
<path d="M17.0329 8.50729L17.0328 8.50739H17.033C16.9386 8.65002 16.9044 8.82172 16.8756 9.00072C16.8404 9.21868 16.8032 9.42791 16.7261 9.63302C16.6335 9.87889 16.478 10.1528 16.2073 10.3673C15.9259 9.60548 15.5164 8.90599 15.0051 8.29424C15.3277 8.16531 15.6443 8.16732 15.9046 8.21024C16.1208 8.24603 16.3206 8.31846 16.5271 8.39691C16.6964 8.46156 16.8622 8.51775 17.0329 8.50729Z" fill="#1D1D1D"/>
<path d="M13.892 5.36633L13.8919 5.36649L13.8921 5.36644C13.8817 5.53708 13.9378 5.70292 14.0024 5.8723C14.0809 6.07873 14.1533 6.2785 14.1892 6.49472C14.2321 6.75523 14.234 7.0722 14.1048 7.39504C13.4921 6.88453 12.7917 6.47595 12.0293 6.19566C12.2442 5.92273 12.5193 5.7662 12.7663 5.67321C12.9714 5.59613 13.1807 5.55897 13.3987 5.52366C13.5776 5.49495 13.7494 5.46075 13.892 5.36633Z" fill="#1D1D1D"/>
<path d="M16.5378 11.6005C16.8792 11.6509 17.1509 11.8102 17.3539 11.9767C17.5232 12.1158 17.66 12.2784 17.7996 12.4497C17.9138 12.5902 18.0294 12.7218 18.1824 12.7981H16.641C16.6406 12.3898 16.605 11.9898 16.5378 11.6005Z" fill="#1D1D1D"/>
<path d="M5.31042 5.36663L5.31052 5.36674V5.36658C5.45315 5.46094 5.6249 5.49514 5.80385 5.52395C6.02181 5.55921 6.23104 5.59638 6.43616 5.6734C6.68314 5.76639 6.95835 5.92297 7.17319 6.19591C6.41068 6.47614 5.71033 6.88478 5.09769 7.39529C4.96844 7.07245 4.97034 6.75547 5.01337 6.49491C5.04916 6.27875 5.12159 6.07892 5.20004 5.87243C5.26464 5.70316 5.32088 5.53728 5.31042 5.36663Z" fill="#1D1D1D"/>
<path d="M2.16943 8.50751L2.16959 8.50757L2.16954 8.50741C2.34019 8.51782 2.50607 8.46163 2.6754 8.39703C2.88183 8.31858 3.0816 8.24615 3.29776 8.21031C3.55812 8.16744 3.87472 8.16548 4.19724 8.29437C3.686 8.90611 3.27662 9.60566 2.99517 10.3674C2.72445 10.1529 2.56893 9.87907 2.47631 9.63315C2.39923 9.42803 2.36207 9.2188 2.32681 9.00079C2.29805 8.82184 2.2638 8.65009 2.16943 8.50751Z" fill="#1D1D1D"/>
<path d="M1.02002 12.798C1.17301 12.7218 1.28846 12.5902 1.40286 12.4496C1.54237 12.2784 1.67918 12.1158 1.84845 11.9767C2.0515 11.8102 2.32296 11.6509 2.66446 11.6005C2.59727 11.9897 2.5618 12.3897 2.56138 12.798H1.02002Z" fill="#1D1D1D"/>
<path d="M9.60128 4.2168V4.21695L9.60139 4.2168C9.67767 4.36984 9.8093 4.48535 9.94987 4.59974C10.121 4.73925 10.2837 4.87606 10.4228 5.04533C10.5904 5.24965 10.7506 5.52328 10.8 5.86779C10.4104 5.80092 10.01 5.76571 9.60133 5.76571C9.19264 5.76571 8.79225 5.80092 8.40259 5.86779C8.45196 5.52333 8.61225 5.24965 8.77982 5.04539C8.91896 4.87606 9.08157 4.73925 9.25275 4.59969C9.39331 4.4854 9.52494 4.36984 9.60128 4.2168Z" fill="#1D1D1D"/>
<path d="M8.16954 12.7997L8.69924 12.7981C8.76881 12.3507 8.63274 12.0063 8.18017 12.0885C7.79881 12.1577 7.38916 12.5366 7.1416 12.7981L7.83999 12.7951C7.9178 12.7439 8.0701 12.6855 8.13264 12.729C8.15606 12.7453 8.16827 12.7684 8.16954 12.7997Z" fill="#1D1D1D"/>
<path d="M10.5514 12.7982H11.2122C11.2436 12.0178 11.1179 11.212 10.7551 10.5148C10.4251 9.88039 9.87968 9.44918 9.17352 9.34498C8.14267 9.19289 7.10252 9.62929 6.22313 10.2536C5.26565 10.9334 4.47534 11.8566 3.78467 12.7982L4.65761 12.7969C5.44349 11.6831 7.25107 9.99198 8.58076 9.98094C9.00451 9.97745 9.43535 10.0769 9.75391 10.3611C9.98472 10.567 10.2645 10.967 10.2508 11.2915C10.2427 11.484 10.0719 11.543 9.90812 11.4834C9.78087 11.4371 9.69101 11.3208 9.60198 11.1985C9.31266 10.8013 8.86136 10.6069 8.36634 10.6746C7.77595 10.7553 7.0441 11.2138 6.57208 11.6307C6.16503 11.9903 5.79133 12.3838 5.43884 12.7982H6.37738C6.72137 12.3829 7.0846 12.0288 7.55155 11.7379C7.6993 11.6459 7.88126 11.5486 8.07252 11.4828C8.55501 11.317 9.03518 11.3589 9.24838 11.9597C9.33217 12.1959 9.34448 12.4031 9.32006 12.7827L9.32001 12.7982H9.95818L9.95982 12.7787C9.96029 12.5708 9.95575 12.4307 9.97452 12.2246C9.99064 12.0471 10.0458 11.8631 10.2108 11.8412C10.5613 11.7677 10.5445 12.5476 10.5514 12.7982Z" fill="#1D1D1D"/>
<path d="M11.9074 12.7981H12.5737C12.6059 12.0741 12.5439 11.2163 12.3096 10.4673C12.2634 10.3196 12.2106 10.1762 12.1506 10.0392C12.0087 9.71555 11.8179 9.42258 11.5904 9.15181C11.3375 8.85101 11.0361 8.58056 10.6964 8.36752C10.5962 8.30466 10.4923 8.24662 10.385 8.19418V8.19407C10.2784 8.142 10.1683 8.09543 10.055 8.0552L10.0546 8.05504C8.75702 7.59433 7.44467 7.92198 6.34383 8.52072C6.1292 8.63749 5.92266 8.76447 5.72601 8.89785C5.52941 9.03112 5.34222 9.17116 5.16618 9.31394L5.16581 9.31426C4.95684 9.48374 4.69537 9.71566 4.4366 9.98975C4.38564 10.0437 4.33532 10.0987 4.28636 10.1543C4.15542 10.3027 3.95364 10.5108 4.01353 10.726C4.06095 10.8966 4.28113 10.8464 4.35784 10.7876C4.47556 10.7244 4.60487 10.6243 4.71551 10.5307C4.86533 10.4038 5.00685 10.2673 5.15518 10.1387C5.75519 9.6186 6.38057 9.21747 6.9966 8.94601C7.13087 8.88685 7.2653 8.83362 7.39926 8.78657C7.53274 8.73968 7.66554 8.69908 7.79717 8.66488L7.7978 8.66472C8.94405 8.36709 10.1896 8.55989 10.9871 9.49468C11.7554 10.3951 11.8957 11.6004 11.9074 12.7981ZM3.6401 11.7802C3.71168 11.7134 3.78463 11.6262 3.86065 11.5297C3.96701 11.3948 3.97769 11.2641 3.93566 11.1698C3.92002 11.1346 3.89691 11.1043 3.86884 11.0809C3.84098 11.0576 3.8081 11.041 3.77263 11.0329C3.68593 11.013 3.58227 11.0441 3.49425 11.1512C3.39471 11.2722 3.25726 11.4794 3.22919 11.6625C3.22396 11.6968 3.22253 11.7302 3.22607 11.7615C3.22951 11.7919 3.23765 11.8209 3.25134 11.8473L3.25145 11.8476L3.2515 11.8476C3.27391 11.8906 3.31171 11.9133 3.36214 11.9152C3.37266 11.9155 3.38403 11.9151 3.39613 11.9137C3.40792 11.9124 3.42072 11.9101 3.4343 11.9069L3.43436 11.907L3.43499 11.9069C3.50287 11.8906 3.57074 11.8449 3.6401 11.7802Z" fill="#1D1D1D"/>
<path d="M13.5739 12.7982L13.5787 12.7981H13.5811C13.6508 12.8019 13.7718 12.7699 13.8416 12.6521C13.8555 12.6286 13.8674 12.6017 13.8765 12.5711C13.8857 12.5401 13.8921 12.5048 13.8948 12.4652H13.8949L13.8954 12.4571C13.9483 10.6065 13.3815 9.07456 12.4192 8.03377C12.2324 7.83167 12.0303 7.64781 11.8147 7.48367C11.5993 7.31963 11.3707 7.17547 11.1307 7.05251L11.1307 7.05256L11.1269 7.05066L11.1268 7.05055C10.3179 6.63721 9.40064 6.47846 8.50026 6.55474C8.3246 6.5696 8.15004 6.59333 7.97754 6.62574C7.80463 6.65825 7.63314 6.69954 7.46418 6.74939L7.4618 6.75013C6.53584 7.02401 5.67415 7.56772 4.97196 8.28112C4.8352 8.4201 4.70452 8.56532 4.58093 8.71603C4.51945 8.79089 4.4596 8.86722 4.40161 8.94472C4.89404 8.51985 5.42236 8.14716 5.97495 7.85107C6.09939 7.78441 6.22457 7.72177 6.35013 7.66372C6.47584 7.60552 6.60313 7.55123 6.73175 7.50122L6.73212 7.50106L6.73249 7.5009C7.22069 7.31117 7.70196 7.19017 8.18334 7.13609C8.66472 7.08201 9.14642 7.09485 9.63557 7.17261C9.98368 7.22802 10.3235 7.31916 10.6296 7.44666C10.6889 7.4714 10.7474 7.49768 10.8046 7.52543C10.8611 7.55281 10.9167 7.58189 10.9711 7.61266H10.9712L10.9721 7.61308L10.972 7.61313C12.0497 8.20325 12.7984 9.41416 13.1282 10.7813C13.1925 11.048 13.2409 11.3203 13.2727 11.5947C13.3044 11.8689 13.3197 12.1463 13.3178 12.423V12.4231L13.3176 12.439C13.3231 12.5871 13.3738 12.711 13.4608 12.7667C13.477 12.7771 13.4945 12.7852 13.5132 12.7904H13.5133C13.5323 12.7959 13.5526 12.7986 13.5739 12.7982Z" fill="#1D1D1D"/>
<path d="M11.6472 6.6311C14.2383 7.48692 16.1108 9.92353 16.1217 12.7984H14.8397C14.9245 10.2871 13.8285 8.02032 11.6472 6.6311Z" fill="#1D1D1D"/>
<path d="M15.7803 22.7448V16.064C15.7803 15.5227 16.219 15.084 16.7603 15.084H26C26.5412 15.084 26.98 15.5227 26.98 16.064V22.7448C26.98 23.286 26.5412 23.7248 26 23.7248H16.7603C16.219 23.7248 15.7803 23.286 15.7803 22.7448Z" stroke="#1D1D1D" stroke-width="1.25" stroke-linejoin="round"/>
<path fill-rule="evenodd" clip-rule="evenodd" d="M21.3808 19.4045C22.1669 19.4045 22.805 18.7665 22.805 17.9803C22.805 17.1942 22.1669 16.5562 21.3808 16.5562C20.5947 16.5562 19.9566 17.1942 19.9566 17.9803C19.9566 18.7665 20.5947 19.4045 21.3808 19.4045ZM21.9505 17.9803C21.9505 17.667 21.6941 17.4107 21.3808 17.4107C21.0675 17.4107 20.8111 17.667 20.8111 17.9803C20.8111 18.2936 21.0675 18.55 21.3808 18.55C21.6941 18.55 21.9505 18.2936 21.9505 17.9803Z" fill="#0033A1"/>
<path fill-rule="evenodd" clip-rule="evenodd" d="M24.2291 21.6774C24.2291 20.4868 22.3435 19.9741 21.3808 19.9741C20.4181 19.9741 18.5325 20.4868 18.5325 21.6774C18.5325 21.9952 18.7901 22.2528 19.1078 22.2528H23.6538C23.9715 22.2528 24.2291 21.9952 24.2291 21.6774ZM21.3808 20.8286C20.7988 20.8286 20.1018 21.0408 19.7065 21.2938C19.6553 21.3265 19.6802 21.3983 19.7409 21.3983H23.0264C23.0871 21.3983 23.112 21.3265 23.0608 21.2938C22.6654 21.0408 21.9678 20.8286 21.3808 20.8286Z" fill="#0033A1"/>
<rect x="11.5366" y="10.9163" width="4.8161" height="9.29772" rx="2.40805" transform="rotate(-30 11.5366 10.9163)" fill="white"/>
<path d="M17.8423 17.0103C18.8467 16.4305 19.1905 15.1473 18.6106 14.143L18.1383 13.325C18.0511 13.1739 17.8593 13.1225 17.7082 13.2097C17.5571 13.297 17.5058 13.4887 17.593 13.6398L18.0653 14.4578C18.4713 15.1611 18.2307 16.059 17.5275 16.465C16.8242 16.871 15.9264 16.6305 15.5203 15.9272L15.048 15.1092C14.9608 14.958 14.769 14.9067 14.6179 14.9939C14.4668 15.0811 14.4154 15.2729 14.5027 15.424L14.975 16.242C15.5548 17.2464 16.838 17.5902 17.8423 17.0103ZM14.064 10.4662C13.0597 11.046 12.7159 12.3292 13.2957 13.3335L13.768 14.1515C13.8553 14.3026 14.047 14.354 14.1981 14.2668C14.3492 14.1795 14.4006 13.9878 14.3134 13.8367L13.8411 13.0186C13.435 12.3154 13.6756 11.4175 14.3789 11.0115C15.0822 10.6055 15.98 10.846 16.386 11.5493L16.8583 12.3673C16.9456 12.5184 17.1373 12.5698 17.2884 12.4826C17.4395 12.3953 17.4909 12.2036 17.4037 12.0525L16.9314 11.2345C16.3515 10.2301 15.0684 9.88629 14.064 10.4662ZM16.908 14.7624L15.5437 12.3992C15.4564 12.2481 15.2647 12.1967 15.1136 12.284C14.9625 12.3712 14.9111 12.563 14.9983 12.7141L16.3627 15.0773C16.4499 15.2284 16.6417 15.2798 16.7928 15.1925C16.9439 15.1053 16.9953 14.9135 16.908 14.7624Z" fill="#0033A1"/>
</svg>
