<svg width="28" height="28" viewBox="0 0 28 28" fill="none" xmlns="http://www.w3.org/2000/svg">
<path fill-rule="evenodd" clip-rule="evenodd" d="M21.0362 4.4365C21.1244 4.4869 21.2252 4.5121 21.326 4.5121C21.5528 4.5121 21.767 4.3861 21.8804 4.1593C22.0442 3.8569 21.9308 3.4789 21.6158 3.3151C19.0454 1.9921 16.7018 1.3999 14.018 1.3999C11.309 1.3999 8.73856 2.0551 6.39496 3.3277C6.09256 3.4915 5.97916 3.8821 6.14296 4.1845C6.31936 4.4869 6.69736 4.6003 6.99976 4.4365C9.15436 3.2521 11.5232 2.6599 14.018 2.6599C16.5254 2.6599 18.617 3.1891 21.0362 4.4365ZM2.92996 11.0137C3.04336 11.0893 3.16936 11.1271 3.29536 11.1271C3.49696 11.1271 3.68596 11.0389 3.78676 10.8625C4.92076 9.2749 6.35716 8.0149 8.07076 7.1329C11.6744 5.2681 16.2986 5.2681 19.9148 7.1203C21.6158 7.9897 23.0522 9.2371 24.1862 10.8247C24.3878 11.1145 24.7784 11.1775 25.0682 10.9759C25.358 10.7743 25.421 10.3711 25.2194 10.0939C23.972 8.3425 22.3844 6.9691 20.4944 5.9989C16.5254 3.9577 11.4602 3.9703 7.50376 6.0115C5.61376 6.9817 4.02616 8.3677 2.77876 10.1317C2.57716 10.4215 2.64016 10.8121 2.92996 11.0137ZM10.7294 26.1463C10.8428 26.2723 11.0066 26.3353 11.1704 26.3353C11.3342 26.3353 11.498 26.2723 11.6366 26.1463C11.876 25.8943 11.876 25.5037 11.6366 25.2517C10.6664 24.2689 10.112 23.6515 9.30556 22.2025C8.53696 20.8417 8.13376 19.1659 8.13376 17.3515C8.13376 17.284 8.13505 17.2168 8.13761 17.1499C7.75347 16.4364 7.49576 15.6449 7.39446 14.8052C7.05877 15.5921 6.87376 16.4518 6.87376 17.3515C6.87376 19.3801 7.32736 21.2701 8.19676 22.8199C9.04096 24.3445 9.63316 25.0501 10.7294 26.1463ZM8.26318 10.6272C7.14805 11.4646 6.2341 12.5509 5.62636 13.8235C5.13496 14.8441 4.88296 16.0411 4.88296 17.3515C4.88296 18.3343 4.97116 19.8841 5.72716 21.9001C5.85316 22.2277 5.68936 22.5931 5.36176 22.7065C5.03416 22.8325 4.66876 22.6561 4.55536 22.3411C3.93796 20.6905 3.63556 19.0525 3.63556 17.3515C3.63556 15.8395 3.92536 14.4661 4.49236 13.2691C5.89685 10.3228 8.73513 8.2439 12.0132 7.64799C10.4249 8.14422 9.09245 9.21975 8.26318 10.6272ZM16.0962 7.68333C17.6788 8.2083 18.9978 9.31143 19.8028 10.7424C21.811 12.3214 23.09 14.6968 23.09 17.3515C23.09 18.6997 21.9182 19.7959 20.4692 19.7959C19.6663 19.7959 18.9486 19.4594 18.4681 18.93C18.1588 19.2105 17.8229 19.4624 17.4647 19.6813C18.1766 20.512 19.2585 21.0433 20.4692 21.0433C22.6112 21.0433 24.35 19.3801 24.35 17.3389C24.35 12.5924 20.805 8.62196 16.0962 7.68333ZM14.2013 20.6505C14.6745 20.6365 15.1354 20.573 15.5788 20.4651C15.9597 20.9912 16.4394 21.4575 17.0042 21.8371C17.8988 22.4419 18.9446 22.7317 20.2046 22.7317C20.507 22.7317 21.011 22.6939 21.515 22.6057C21.8552 22.5427 22.1828 22.7695 22.2458 23.1223C22.3088 23.4625 22.082 23.7901 21.7292 23.8531C21.011 23.9917 20.381 24.0043 20.2046 24.0043C18.7052 24.0043 17.3822 23.6263 16.2986 22.8829C15.4224 22.289 14.711 21.5223 14.2013 20.6505ZM11.9118 20.3193C12.3104 21.3213 12.9138 22.2389 13.703 23.0215C14.9 24.2059 16.0466 24.8611 17.8232 25.3525C18.1634 25.4407 18.3524 25.7935 18.2642 26.1211C18.2012 26.4109 17.9366 26.5999 17.672 26.5999C17.6216 26.5999 17.5586 26.5873 17.5082 26.5747C15.5048 26.0203 14.1944 25.2769 12.821 23.9287C11.5917 22.7082 10.7479 21.2063 10.3493 19.5636C10.8303 19.8798 11.3548 20.1354 11.9118 20.3193ZM19.8723 17.1307C19.8754 17.2039 19.877 17.2775 19.877 17.3515C19.877 17.7043 20.1542 17.9815 20.507 17.9815C20.8598 17.9815 21.137 17.7043 21.137 17.3515C21.137 16.444 20.9488 15.5773 20.6076 14.785C20.5089 15.6247 20.2538 16.4165 19.8723 17.1307Z" fill="#1D1D1D"/>
<path d="M11.8806 13.8165H16.3034C16.3034 13.3148 16.3034 11.9984 16.3034 11.2901C16.3034 10.5812 11.6963 8.23898 11.6963 16.2951C11.6953 16.8852 11.8781 18.2463 16.3034 17.1803" stroke="#0033A1" stroke-width="1.75" stroke-linecap="round" stroke-linejoin="round"/>
</svg>
