<svg width="42" height="42" viewBox="0 0 42 42" fill="none" xmlns="http://www.w3.org/2000/svg">
<path fill-rule="evenodd" clip-rule="evenodd" d="M33.7438 25.742C33.7438 24.8778 33.4 24.048 32.7894 23.4362C32.1777 22.8257 31.3479 22.4819 30.4837 22.4819C25.9409 22.4819 16.0587 22.4819 11.5159 22.4819C10.6517 22.4819 9.82188 22.8257 9.21017 23.4362C8.59965 24.048 8.25586 24.8778 8.25586 25.742V28.7057C8.25586 29.5699 8.59965 30.3998 9.21017 31.0115C9.82188 31.622 10.6517 31.9658 11.5159 31.9658H30.4837C31.3479 31.9658 32.1777 31.622 32.7894 31.0115C33.4 30.3998 33.7438 29.5699 33.7438 28.7057C33.7438 27.7644 33.7438 26.6833 33.7438 25.742ZM31.9655 25.742V28.7057C31.9655 29.0993 31.8091 29.4751 31.5317 29.7537C31.2531 30.0311 30.8773 30.1876 30.4837 30.1876H11.5159C11.1224 30.1876 10.7466 30.0311 10.468 29.7537C10.1906 29.4751 10.0341 29.0993 10.0341 28.7057C10.0341 27.7644 10.0341 26.6833 10.0341 25.742C10.0341 25.3484 10.1906 24.9726 10.468 24.694C10.7466 24.4166 11.1224 24.2602 11.5159 24.2602H30.4837C30.8773 24.2602 31.2531 24.4166 31.5317 24.694C31.8091 24.9726 31.9655 25.3484 31.9655 25.742Z" fill="#0037D7"/>
<path fill-rule="evenodd" clip-rule="evenodd" d="M28.4092 31.0766V32.2621C28.4092 32.7529 28.8075 33.1512 29.2983 33.1512C29.7891 33.1512 30.1874 32.7529 30.1874 32.2621V31.0766C30.1874 30.5858 29.7891 30.1875 29.2983 30.1875C28.8075 30.1875 28.4092 30.5858 28.4092 31.0766Z" fill="#0037D7"/>
<path fill-rule="evenodd" clip-rule="evenodd" d="M32.0073 11.8411L28.4508 23.1032C28.3027 23.5715 28.5623 24.0717 29.0305 24.2187C29.4988 24.3669 29.9991 24.1073 30.1461 23.639L33.7025 12.3769C33.8507 11.9087 33.5911 11.4084 33.1228 11.2614C32.6546 11.1132 32.1543 11.3728 32.0073 11.8411Z" fill="#0037D7"/>
<path fill-rule="evenodd" clip-rule="evenodd" d="M28.4092 26.6311V27.8165C28.4092 28.3073 28.8075 28.7057 29.2983 28.7057C29.7891 28.7057 30.1874 28.3073 30.1874 27.8165V26.6311C30.1874 26.1403 29.7891 25.7419 29.2983 25.7419C28.8075 25.7419 28.4092 26.1403 28.4092 26.6311Z" fill="#0037D7"/>
<path fill-rule="evenodd" clip-rule="evenodd" d="M24.853 26.6311V27.8165C24.853 28.3073 25.2513 28.7057 25.7421 28.7057C26.2329 28.7057 26.6313 28.3073 26.6313 27.8165V26.6311C26.6313 26.1403 26.2329 25.7419 25.7421 25.7419C25.2513 25.7419 24.853 26.1403 24.853 26.6311Z" fill="#0037D7"/>
<path fill-rule="evenodd" clip-rule="evenodd" d="M21.2964 26.6311V27.8165C21.2964 28.3073 21.6947 28.7057 22.1855 28.7057C22.6763 28.7057 23.0746 28.3073 23.0746 27.8165V26.6311C23.0746 26.1403 22.6763 25.7419 22.1855 25.7419C21.6947 25.7419 21.2964 26.1403 21.2964 26.6311Z" fill="#0037D7"/>
<path fill-rule="evenodd" clip-rule="evenodd" d="M11.8125 31.0766V32.2621C11.8125 32.7529 12.2108 33.1512 12.7016 33.1512C13.1924 33.1512 13.5907 32.7529 13.5907 32.2621V31.0766C13.5907 30.5858 13.1924 30.1875 12.7016 30.1875C12.2108 30.1875 11.8125 30.5858 11.8125 31.0766Z" fill="#0037D7"/>
<path fill-rule="evenodd" clip-rule="evenodd" d="M8.29753 12.3769L11.854 23.639C12.001 24.1073 12.5013 24.3669 12.9695 24.2187C13.4378 24.0717 13.6974 23.5715 13.5492 23.1032L9.99277 11.8411C9.84577 11.3728 9.34549 11.1132 8.87723 11.2614C8.40896 11.4084 8.14934 11.9087 8.29753 12.3769Z" fill="#0037D7"/>
<path d="M20.9999 19.6344C20.3455 19.6344 19.8145 19.1033 19.8145 18.4489C19.8145 17.7945 20.3455 17.2634 20.9999 17.2634C21.6543 17.2634 22.1854 17.7945 22.1854 18.4489C22.1854 19.1033 21.6543 19.6344 20.9999 19.6344Z" fill="#0783FF"/>
<path fill-rule="evenodd" clip-rule="evenodd" d="M18.6646 15.7912C19.2597 15.1961 20.086 14.8214 21 14.8214C21.914 14.8214 22.7403 15.1961 23.3354 15.7912C23.6816 16.1385 24.2458 16.1385 24.592 15.7912C24.9393 15.4438 24.9393 14.8807 24.592 14.5334C23.678 13.6182 22.406 13.0432 21 13.0432C19.594 13.0432 18.3232 13.6182 17.408 14.5334C17.0606 14.8807 17.0606 15.4438 17.408 15.7912C17.7541 16.1385 18.3184 16.1385 18.6646 15.7912Z" fill="#0783FF"/>
<path fill-rule="evenodd" clip-rule="evenodd" d="M15.7044 12.8238C17.0535 11.4629 18.9266 10.6271 21 10.6271C23.0734 10.6271 24.9465 11.4629 26.2955 12.8238C26.6417 13.1723 27.2048 13.1759 27.5533 12.8297C27.9019 12.4848 27.9042 11.9217 27.5593 11.5731C25.8877 9.88618 23.5677 8.84888 21 8.84888C18.4322 8.84888 16.1122 9.88618 14.4407 11.5731C14.0957 11.9217 14.0981 12.4848 14.4466 12.8297C14.7952 13.1759 15.3583 13.1723 15.7044 12.8238Z" fill="#0783FF"/>
</svg>
