<svg width="29" height="28" viewBox="0 0 29 28" fill="none" xmlns="http://www.w3.org/2000/svg">
<g clip-path="url(#clip0_617_464)">
<mask id="mask0_617_464" style="mask-type:luminance" maskUnits="userSpaceOnUse" x="1" y="1" width="27" height="27">
<path d="M1.42871 1.00098H27.4287V27.001H1.42871V1.00098Z" fill="white"/>
</mask>
<g mask="url(#mask0_617_464)">
<path d="M17.168 23.1919H4.63918C3.27977 23.1919 2.17773 22.0551 2.17773 20.6528V7.34814C2.17773 5.94587 3.27977 4.80908 4.63918 4.80908H6.09144" stroke="black" stroke-width="1.39286" stroke-miterlimit="10" stroke-linecap="round" stroke-linejoin="round"/>
<path d="M6.10645 4.80957H24.1826C25.542 4.80957 26.6441 5.94636 26.6441 7.34863V20.6533C26.6441 22.0556 25.542 23.1924 24.1826 23.1924L19.8115 23.1924" stroke="black" stroke-width="1.39286" stroke-miterlimit="10" stroke-linecap="round" stroke-linejoin="round"/>
<mask id="mask1_617_464" style="mask-type:alpha" maskUnits="userSpaceOnUse" x="2" y="7" width="17" height="17">
<rect x="2.18164" y="7.48242" width="16" height="16" fill="#D9D9D9"/>
</mask>
<g mask="url(#mask1_617_464)">
<path d="M5.92511 19.8157V20.4439C5.92511 20.6398 5.85649 20.8062 5.71924 20.9433C5.58199 21.0805 5.41533 21.149 5.21926 21.149C5.02318 21.149 4.85677 21.0805 4.72003 20.9433C4.58327 20.8062 4.51489 20.6398 4.51489 20.4439V15.7413C4.51489 15.6721 4.51938 15.6029 4.52836 15.5336C4.53734 15.4644 4.55244 15.3981 4.57366 15.3347L5.76746 11.9593C5.84735 11.7192 5.99215 11.5242 6.20188 11.3741C6.41159 11.2241 6.64626 11.149 6.90591 11.149H13.4572C13.7168 11.149 13.9515 11.2241 14.1612 11.3741C14.3709 11.5242 14.5157 11.7192 14.5956 11.9593L15.7894 15.3347C15.8106 15.3981 15.8257 15.4644 15.8347 15.5336C15.8437 15.6029 15.8482 15.6721 15.8482 15.7413V20.4439C15.8482 20.6398 15.7796 20.8062 15.6423 20.9433C15.5051 21.0805 15.3384 21.149 15.1423 21.149C14.9462 21.149 14.7798 21.0805 14.6431 20.9433C14.5063 20.8062 14.438 20.6398 14.438 20.4439V19.8157H5.92511ZM5.91999 14.5337H14.4431L13.6533 12.2837C13.6362 12.2409 13.6106 12.2078 13.5764 12.1843C13.5422 12.1608 13.5016 12.149 13.4546 12.149H6.90848C6.86146 12.149 6.82087 12.1608 6.78668 12.1843C6.75249 12.2078 6.72684 12.2409 6.70974 12.2837L5.91999 14.5337ZM7.15741 18.0465C7.39999 18.0465 7.60568 17.9616 7.77448 17.7917C7.94329 17.6219 8.02769 17.4157 8.02769 17.1732C8.02769 16.9306 7.94279 16.7249 7.77298 16.5561C7.60316 16.3873 7.39697 16.3029 7.15439 16.3029C6.91181 16.3029 6.70612 16.3878 6.53731 16.5576C6.36851 16.7274 6.28411 16.9336 6.28411 17.1762C6.28411 17.4188 6.36901 17.6245 6.53883 17.7933C6.70864 17.9621 6.91483 18.0465 7.15741 18.0465ZM13.2087 18.0465C13.4513 18.0465 13.657 17.9616 13.8258 17.7917C13.9946 17.6219 14.079 17.4157 14.079 17.1732C14.079 16.9306 13.9941 16.7249 13.8243 16.5561C13.6544 16.3873 13.4483 16.3029 13.2057 16.3029C12.9631 16.3029 12.7574 16.3878 12.5886 16.5576C12.4198 16.7274 12.3354 16.9336 12.3354 17.1762C12.3354 17.4188 12.4203 17.6245 12.5901 17.7933C12.7599 17.9621 12.9661 18.0465 13.2087 18.0465ZM5.51488 18.8157H14.8482V15.5336H5.51488V18.8157Z" fill="#0033A1"/>
</g>
</g>
<circle cx="23.0894" cy="6.71058" r="5.44264" fill="white"/>
<path fill-rule="evenodd" clip-rule="evenodd" d="M20.9315 3.91448L20.955 3.91692C21.0539 3.9272 21.1525 3.93745 21.2505 3.93644C21.6913 3.93194 22.1133 3.75714 22.4282 3.44863C22.4982 3.38002 22.5606 3.30309 22.6233 3.2259L22.6382 3.20755C22.7237 3.10231 22.7773 3.03649 22.8195 2.98802C22.8553 2.94696 22.8689 2.93467 22.8701 2.93364C22.9978 2.82945 23.1812 2.82945 23.3089 2.93364C23.31 2.93464 23.3237 2.94692 23.3595 2.98802C23.4016 3.03649 23.4553 3.10231 23.5408 3.20755L23.5557 3.2259C23.6184 3.30309 23.6808 3.38003 23.7508 3.44863C24.0657 3.75714 24.4877 3.93194 24.9285 3.93644C25.0265 3.93745 25.1251 3.9272 25.2239 3.91692L25.2475 3.91448C25.3824 3.90055 25.4668 3.89191 25.5309 3.88747C25.5852 3.8837 25.6036 3.88468 25.6051 3.88478C25.7691 3.90141 25.8988 4.03107 25.9154 4.19505C25.9155 4.19653 25.9165 4.21487 25.9127 4.26928C25.9083 4.33337 25.8996 4.41782 25.8857 4.55272L25.8833 4.5762C25.873 4.67509 25.8628 4.77366 25.8638 4.87169C25.8683 5.3125 26.0431 5.7345 26.3516 6.04938C26.4202 6.11941 26.4971 6.18181 26.5743 6.2445L26.5926 6.25942C26.6979 6.34496 26.7637 6.39857 26.8122 6.4407C26.8531 6.47635 26.8654 6.49005 26.8665 6.49127C26.9707 6.61899 26.9707 6.80241 26.8665 6.93013C26.8654 6.93136 26.8531 6.94505 26.8122 6.9807C26.7637 7.02284 26.6979 7.07645 26.5926 7.16199L26.5743 7.17691C26.4971 7.23959 26.4202 7.302 26.3516 7.37203C26.0431 7.68689 25.8683 8.10892 25.8638 8.54973C25.8628 8.64774 25.873 8.7463 25.8833 8.84517L25.8857 8.86871C25.8996 9.0036 25.9083 9.08805 25.9127 9.15214C25.9165 9.20661 25.9155 9.22493 25.9154 9.22638C25.8988 9.39034 25.7691 9.52001 25.6051 9.53661C25.6037 9.5367 25.5854 9.5377 25.5309 9.53394C25.4668 9.52949 25.3824 9.52087 25.2475 9.50695L25.2239 9.5045C25.1251 9.49421 25.0265 9.48396 24.9285 9.48495C24.4877 9.48949 24.0657 9.66424 23.7508 9.9728C23.6808 10.0414 23.6184 10.1183 23.5557 10.1955L23.5408 10.2139C23.4553 10.3191 23.4016 10.3849 23.3595 10.4334C23.3239 10.4743 23.3101 10.4867 23.3089 10.4878C23.1812 10.5919 22.9978 10.5919 22.8701 10.4878C22.8689 10.4867 22.8551 10.4743 22.8195 10.4334C22.7773 10.3849 22.7237 10.3191 22.6382 10.2139L22.6233 10.1955C22.5606 10.1183 22.4982 10.0414 22.4282 9.9728C22.1133 9.66424 21.6913 9.48949 21.2505 9.48495C21.1525 9.48396 21.0539 9.49421 20.955 9.5045L20.9315 9.50695C20.7966 9.52087 20.7122 9.52949 20.6481 9.53394C20.5936 9.5377 20.5753 9.5367 20.5738 9.53661C20.4099 9.52001 20.2802 9.39034 20.2636 9.22634C20.2635 9.22479 20.2625 9.20643 20.2663 9.15214C20.2707 9.08805 20.2793 9.0036 20.2933 8.86871L20.2957 8.84517C20.306 8.7463 20.3162 8.64774 20.3152 8.54973C20.3107 8.10892 20.1359 7.68689 19.8274 7.37203C19.7588 7.302 19.6819 7.23959 19.6047 7.17691L19.5863 7.16199C19.4811 7.07645 19.4153 7.02284 19.3668 6.9807C19.3257 6.94492 19.3134 6.93122 19.3124 6.93009C19.2082 6.80241 19.2082 6.61899 19.3124 6.49132C19.3134 6.49019 19.3257 6.47649 19.3668 6.4407C19.4153 6.39857 19.4811 6.34496 19.5863 6.25942L19.6047 6.2445C19.6819 6.18186 19.7588 6.11941 19.8274 6.04938C20.1359 5.7345 20.3107 5.3125 20.3152 4.87169C20.3162 4.77366 20.306 4.67512 20.2957 4.57623L20.2933 4.55272C20.2793 4.41782 20.2707 4.33337 20.2663 4.26928C20.2625 4.21497 20.2635 4.1966 20.2636 4.19506C20.2802 4.03108 20.4099 3.90141 20.5738 3.88478C20.5754 3.88468 20.5938 3.8837 20.6481 3.88747C20.7122 3.89191 20.7966 3.90055 20.9315 3.91448ZM19.3124 6.93009C19.3124 6.93009 19.3124 6.93009 19.3124 6.93009ZM20.5738 9.53661C20.5738 9.53661 20.5738 9.53661 20.5738 9.53661ZM23.3089 10.4878C23.309 10.4877 23.3088 10.4879 23.3089 10.4878ZM25.6051 3.88478C25.6051 3.88478 25.6052 3.88478 25.6051 3.88478ZM22.1102 2.77845C22.2755 2.57513 22.3582 2.47345 22.439 2.40729C22.8175 2.0978 23.3615 2.0978 23.74 2.40729C23.8208 2.47345 23.9035 2.57511 24.0687 2.77843C24.1465 2.8741 24.1854 2.92196 24.2269 2.96267C24.4164 3.14828 24.6702 3.25344 24.9355 3.25615C24.9936 3.25674 25.0549 3.25041 25.1776 3.23775C25.4382 3.21083 25.5685 3.19737 25.6725 3.20779C26.1589 3.25652 26.5437 3.64124 26.5924 4.12767C26.6028 4.23166 26.5894 4.36197 26.5625 4.6226C26.5498 4.74524 26.5435 4.80656 26.544 4.86473C26.5468 5.12994 26.6519 5.38382 26.8375 5.57326C26.8782 5.61481 26.9261 5.65369 27.0217 5.73145C27.2251 5.89669 27.3267 5.97935 27.3929 6.06026C27.7024 6.43866 27.7024 6.98274 27.3929 7.36114C27.3267 7.44206 27.2251 7.5247 27.0217 7.68992C26.9261 7.76766 26.8782 7.80658 26.8375 7.84812C26.6519 8.03757 26.5468 8.29147 26.544 8.55667C26.5435 8.61486 26.5498 8.67618 26.5625 8.79882C26.5894 9.05943 26.6028 9.18974 26.5924 9.29374C26.5437 9.78017 26.1589 10.1649 25.6725 10.2136C25.5685 10.224 25.4382 10.2106 25.1776 10.1837C25.0549 10.171 24.9936 10.1646 24.9355 10.1652C24.6702 10.168 24.4164 10.2731 24.2269 10.4587C24.1854 10.4995 24.1465 10.5473 24.0687 10.6429C23.9035 10.8462 23.8208 10.9479 23.74 11.0141C23.3615 11.3236 22.8175 11.3236 22.439 11.0141C22.3582 10.9479 22.2755 10.8463 22.1103 10.643C22.0325 10.5474 21.9936 10.4995 21.952 10.4587C21.7626 10.2731 21.5087 10.168 21.2435 10.1652C21.1854 10.1646 21.124 10.171 21.0014 10.1837C20.7408 10.2106 20.6104 10.224 20.5065 10.2136C20.02 10.1649 19.6353 9.78017 19.5866 9.29374C19.5762 9.18974 19.5896 9.05943 19.6165 8.79882C19.6292 8.67618 19.6355 8.61486 19.6349 8.55667C19.6322 8.29147 19.5271 8.03757 19.3415 7.84812C19.3007 7.80658 19.2529 7.76771 19.1572 7.68997C18.9539 7.52474 18.8522 7.44206 18.7861 7.36114C18.4766 6.98274 18.4766 6.43866 18.7861 6.06026C18.8522 5.97935 18.9539 5.89671 19.1572 5.73147C19.2529 5.6537 19.3007 5.61481 19.3415 5.57326C19.5271 5.38382 19.6322 5.12994 19.6349 4.86473C19.6355 4.80657 19.6292 4.74524 19.6165 4.62261C19.5896 4.36198 19.5762 4.23166 19.5866 4.12767C19.6353 3.64124 20.02 3.25652 20.5065 3.20779C20.6104 3.19737 20.7408 3.21083 21.0014 3.23775C21.124 3.25041 21.1854 3.25674 21.2435 3.25615C21.5087 3.25344 21.7626 3.14828 21.952 2.96267C21.9936 2.92196 22.0325 2.87412 22.1102 2.77845ZM24.6907 6.04412C24.8236 5.91127 24.8236 5.69591 24.6907 5.56306C24.5579 5.43022 24.3425 5.43022 24.2097 5.56306L22.636 7.13673L21.9694 6.47018C21.8366 6.33734 21.6212 6.33734 21.4884 6.47018C21.3555 6.60303 21.3555 6.81838 21.4884 6.95122L22.3955 7.85833C22.5283 7.99117 22.7437 7.99117 22.8765 7.85833L24.6907 6.04412Z" fill="#0033A1"/>
</g>
<defs>
<clipPath id="clip0_617_464">
<rect width="28" height="28" fill="white" transform="translate(0.426758)"/>
</clipPath>
</defs>
</svg>
