<svg width="42" height="42" viewBox="0 0 42 42" fill="none" xmlns="http://www.w3.org/2000/svg">
<g clip-path="url(#clip0_1414_4607)">
<path d="M12.6092 11.7754H18.5834C18.9707 13.6755 20.6546 15.1096 22.6673 15.1096H31.0027C31.4631 15.1096 31.8363 14.7364 31.8363 14.2761V13.4425H34.3925C34.8528 13.4425 35.226 13.0693 35.226 12.609V9.2748C35.226 8.81446 34.8528 8.44126 34.3925 8.44126H31.8363V7.60771C31.8363 7.14738 31.4631 6.77417 31.0027 6.77417H22.6673C20.6546 6.77417 18.9707 8.20831 18.5834 10.1083H12.6092C9.39191 10.1083 6.77441 12.7258 6.77441 15.9431C6.77441 19.1605 9.39191 21.778 12.6092 21.778H29.3357C31.6249 21.778 33.5589 23.712 33.5589 26.0012C33.5589 28.2905 31.6249 30.2245 29.3357 30.2245H23.417C23.0298 28.3245 21.3459 26.8903 19.3331 26.8903H10.9421C10.4818 26.8903 10.1086 27.2636 10.1086 27.7239V28.5574H7.60796C7.14762 28.5574 6.77441 28.9306 6.77441 29.391V32.7252C6.77441 33.1855 7.14762 33.5587 7.60796 33.5587H10.1086V34.3922C10.1086 34.8526 10.4818 35.2258 10.9421 35.2258H19.3331C21.3459 35.2258 23.0297 33.7916 23.417 31.8916H29.3357C32.557 31.8916 35.226 29.2322 35.226 26.0012C35.226 22.7799 32.5666 20.1109 29.3357 20.1109H12.6092C10.3111 20.1109 8.4415 18.2412 8.4415 15.9431C8.4415 13.6451 10.3111 11.7754 12.6092 11.7754ZM31.8363 10.1083H33.5589V11.7754H31.8363V10.1083ZM22.6673 8.44126H30.1692C30.1692 9.26369 30.1692 12.9354 30.1692 13.4425H22.6673C21.2885 13.4425 20.1667 12.3207 20.1667 10.9419C20.1667 9.56304 21.2885 8.44126 22.6673 8.44126ZM10.1086 31.8916H8.4415V30.2245H10.1086V31.8916ZM19.3331 33.5587H11.7757C11.7757 33.0525 11.7757 29.3726 11.7757 28.5574H19.3331C20.712 28.5574 21.8338 29.6792 21.8338 31.0581C21.8338 32.4369 20.712 33.5587 19.3331 33.5587Z" fill="#0037D7"/>
<path d="M19.3332 30.2246H14.2764C13.8161 30.2246 13.4429 30.5978 13.4429 31.0582C13.4429 31.5185 13.8161 31.8917 14.2764 31.8917H19.3332C19.7936 31.8917 20.1668 31.5185 20.1668 31.0582C20.1668 30.5978 19.7936 30.2246 19.3332 30.2246Z" fill="#0783FF"/>
<path d="M27.6688 10.1084H22.6675C22.2072 10.1084 21.834 10.4816 21.834 10.9419C21.834 11.4023 22.2072 11.7755 22.6675 11.7755H27.6688C28.1291 11.7755 28.5023 11.4023 28.5023 10.9419C28.5023 10.4816 28.1291 10.1084 27.6688 10.1084Z" fill="#0783FF"/>
</g>
<defs>
<clipPath id="clip0_1414_4607">
<rect width="28.4516" height="28.4516" fill="white" transform="translate(6.77441 6.77417)"/>
</clipPath>
</defs>
</svg>
