<svg width="42" height="42" viewBox="0 0 42 42" fill="none" xmlns="http://www.w3.org/2000/svg">
<g clip-path="url(#clip0_1414_4615)">
<path d="M12.1497 15.4334C12.1497 17.6216 13.2599 19.5365 14.9311 20.6949C10.4542 22.0972 7.20166 25.9988 7.20166 30.6142V32.1333C7.20166 32.6128 7.5907 33.0018 8.07019 33.0018C8.54968 33.0018 8.93872 32.6128 8.93872 32.1333V30.6142C8.93867 25.815 13.2435 21.8686 18.5849 21.8686C23.9263 21.8686 28.2311 25.815 28.2311 30.6142V32.1333C28.2311 32.6128 28.6202 33.0018 29.0997 33.0018C29.5791 33.0018 29.9682 32.6128 29.9682 32.1333V30.6142C29.9681 25.9989 26.7157 22.0962 22.2388 20.6949C23.9099 19.5364 25.02 17.6215 25.02 15.4334C25.02 11.8849 22.1334 8.99829 18.5849 8.99829C15.0363 8.99829 12.1497 11.8849 12.1497 15.4334ZM13.8868 15.4334C13.8868 12.8427 15.9941 10.7354 18.5849 10.7354C21.1757 10.7354 23.283 12.8427 23.283 15.4334C23.283 18.0242 21.1757 20.1315 18.5849 20.1315C15.9941 20.1315 13.8868 18.0243 13.8868 15.4334Z" fill="#0037D7" stroke="#0037D7" stroke-width="0.5"/>
<path d="M34.6982 28.4779C34.6982 24.9295 32.2916 21.9098 28.9384 20.7478C30.1799 19.8174 30.9871 18.3381 30.9871 16.6705C30.9871 13.8588 28.7007 11.5724 25.889 11.5724C25.4648 11.5724 25.1205 11.9167 25.1205 12.3409C25.1205 12.7652 25.4648 13.1095 25.889 13.1095C27.8522 13.1095 29.4501 14.7074 29.4501 16.6706C29.4501 18.6337 27.8522 20.2316 25.889 20.2316C25.4648 20.2316 25.1205 20.5759 25.1205 21.0002C25.1205 21.4244 25.4647 21.7686 25.889 21.7686C29.9108 21.7686 33.1611 24.7888 33.1611 28.4779V29.6592C33.1611 30.0835 33.5054 30.4277 33.9297 30.4277C34.3539 30.4277 34.6982 30.0835 34.6982 29.6592V28.4779Z" fill="#0783FF" stroke="#0783FF" stroke-width="0.3"/>
</g>
<defs>
<clipPath id="clip0_1414_4615">
<rect width="28.4516" height="28.4516" fill="white" transform="translate(6.77441 6.77417)"/>
</clipPath>
</defs>
</svg>
