<svg width="42" height="42" viewBox="0 0 42 42" fill="none" xmlns="http://www.w3.org/2000/svg">
<g clip-path="url(#clip0_1414_4614)">
<path d="M32.1141 11.2197H9.88631C8.17043 11.2197 6.77441 12.6157 6.77441 14.3316V27.6683C6.77441 29.3842 8.17043 30.7802 9.88631 30.7802H32.1141C33.83 30.7802 35.226 29.3842 35.226 27.6683V14.3316C35.226 12.6157 33.83 11.2197 32.1141 11.2197ZM9.88631 12.998H32.1141C32.8495 12.998 33.4478 13.5963 33.4478 14.3316V16.1098H8.55264V14.3316C8.55264 13.5963 9.15096 12.998 9.88631 12.998ZM32.1141 29.002H9.88631C9.15096 29.002 8.55264 28.4037 8.55264 27.6683V17.8881H33.4478V27.6683C33.4478 28.4037 32.8495 29.002 32.1141 29.002Z" fill="#0037D7"/>
<path d="M12.9984 26.3346H12.1093C11.6183 26.3346 11.2202 25.9365 11.2202 25.4455V24.5563C11.2202 24.0653 11.6183 23.6672 12.1093 23.6672H12.9984C13.4895 23.6672 13.8876 24.0653 13.8876 24.5563V25.4455C13.8876 25.9365 13.4895 26.3346 12.9984 26.3346Z" fill="#0783FF"/>
</g>
<defs>
<clipPath id="clip0_1414_4614">
<rect width="28.4516" height="28.4516" fill="white" transform="translate(6.77441 6.77417)"/>
</clipPath>
</defs>
</svg>
