<svg width="42" height="42" viewBox="0 0 42 42" fill="none" xmlns="http://www.w3.org/2000/svg">
<g clip-path="url(#clip0_1414_4626)">
<path d="M31.0463 6.71851H11.0352C8.83869 6.71851 7.052 8.50585 7.052 10.7021V31.1865C7.052 33.3828 8.83869 35.1701 11.0352 35.1701H31.0463C33.2426 35.1701 35.0293 33.3828 35.0293 31.1865C35.0293 30.2344 35.0293 11.0102 35.0293 10.7021C35.0293 8.50585 33.2426 6.71851 31.0463 6.71851ZM33.3151 31.1865C33.3151 32.4377 32.2971 33.4559 31.0463 33.4559H11.0352C9.78446 33.4559 8.76619 32.4377 8.76619 31.1865V15.2875H33.3151V31.1865ZM8.76619 10.7021C8.76619 9.45097 9.78446 8.4327 11.0352 8.4327H31.0463C32.2971 8.4327 33.3151 9.45097 33.3151 10.7021V13.5735H8.76619V10.7021Z" fill="#0037D7"/>
<path d="M15.1052 9.87329C14.4807 9.87329 13.9751 10.3788 13.9751 11.0036C13.9751 11.6274 14.4807 12.1332 15.1052 12.1332C15.7292 12.1332 16.2348 11.6274 16.2348 11.0036C16.2348 10.3788 15.7292 9.87329 15.1052 9.87329Z" fill="#0037D7"/>
<path d="M26.9763 9.87329C26.3522 9.87329 25.8467 10.3788 25.8467 11.0036C25.8467 11.6274 26.3522 12.1332 26.9763 12.1332C27.6008 12.1332 28.1064 11.6274 28.1064 11.0036C28.1064 10.3788 27.6008 9.87329 26.9763 9.87329Z" fill="#0037D7"/>
<path d="M15.1327 28.3358L16.025 28.0935C18.2189 31.2955 21.722 31.1012 21.7402 31.106C25.5072 31.106 28.6128 28.0462 28.6654 24.2783C28.691 22.4094 27.9831 20.6472 26.6718 19.3177C23.8009 16.4055 18.9861 16.5566 16.604 19.9068C16.3296 20.2925 16.4199 20.8272 16.8056 21.1015C17.1913 21.3757 17.7266 21.2854 18.001 20.8999C19.771 18.4114 23.3353 18.3756 25.4512 20.5209C28.6836 23.8001 26.3519 29.3918 21.7402 29.3918C21.704 29.3836 19.4734 29.5229 17.8106 27.609L18.6837 27.372C19.1895 27.2348 19.3568 26.6012 18.985 26.232L16.3747 23.6391C16.0033 23.2694 15.3708 23.4413 15.2366 23.9482L14.2961 27.5044C14.1619 28.0113 14.6269 28.473 15.1327 28.3358Z" fill="#0783FF"/>
</g>
<defs>
<clipPath id="clip0_1414_4626">
<rect width="28.4516" height="28.4516" fill="white" transform="translate(6.77417 6.77417)"/>
</clipPath>
</defs>
</svg>
