<svg width="24" height="24" viewBox="0 0 24 24" fill="none" xmlns="http://www.w3.org/2000/svg">
<g clip-path="url(#clip0_4380_75)">
<path fill-rule="evenodd" clip-rule="evenodd" d="M12 3.25011C9.83001 3.25011 8.275 3.2517 7.09238 3.41733C5.93047 3.58005 5.23644 3.88864 4.72471 4.42168C4.21299 4.95473 3.91675 5.67768 3.76053 6.88801C3.60153 8.11991 3.6 9.73974 3.6 12.0001C3.6 14.2605 3.60153 15.8803 3.76053 17.1122C3.91675 18.3225 4.21299 19.0455 4.72471 19.5785C5.23644 20.1116 5.93047 20.4202 7.09238 20.5829C8.275 20.7485 9.83001 20.7501 12 20.7501C14.17 20.7501 15.725 20.7485 16.9076 20.5829C18.0695 20.4202 18.7636 20.1116 19.2753 19.5785C19.787 19.0455 20.0833 18.3225 20.2395 17.1122C20.3985 15.8803 20.4 14.2605 20.4 12.0001V10.5009C20.4 10.0866 20.7224 9.75011 21.12 9.75011C21.5176 9.75011 21.84 10.0859 21.84 10.5001V12.0573C21.84 14.248 21.84 15.9687 21.6666 17.3121C21.4889 18.6887 21.1174 19.781 20.2935 20.6392C19.4697 21.4974 18.421 21.8844 17.0995 22.0695C15.8098 22.2501 14.158 22.2501 12.0549 22.2501H11.9451C9.84201 22.2501 8.19019 22.2501 6.9005 22.0695C5.57892 21.8844 4.53035 21.4974 3.70648 20.6392C2.88261 19.781 2.51106 18.6887 2.33337 17.3121C2.15998 15.9687 2.15999 14.248 2.16 12.0573V11.9429C2.15999 9.75223 2.15998 8.03155 2.33337 6.68814C2.51106 5.31148 2.88261 4.21922 3.70648 3.36102C4.53035 2.50283 5.57892 2.11579 6.9005 1.93071C8.19019 1.75009 9.84201 1.7501 11.9451 1.75011H13.4394C13.837 1.7501 14.16 2.08589 14.16 2.5001C14.16 2.91432 13.8376 3.2501 13.44 3.25011H12Z" fill="black"/>
<path fill-rule="evenodd" clip-rule="evenodd" d="M17.0836 1.48974C17.0891 1.07556 17.4158 0.7444 17.8134 0.75007C18.6169 0.76152 20.3424 0.80466 21.3165 0.98437C21.6707 1.04972 21.9785 1.22647 22.208 1.48141C22.21 1.48349 22.2118 1.48557 22.2136 1.48767C22.4175 1.71648 22.5586 2.00745 22.6146 2.3369C22.7869 3.35146 22.8284 5.14868 22.8395 5.9855C22.845 6.39967 22.527 6.74005 22.1294 6.74574C21.7319 6.75144 21.4051 6.4203 21.3996 6.00613C21.3913 5.37415 21.3659 4.31709 21.2956 3.45254L17.8305 7.02864C17.548 7.32017 17.0922 7.31796 16.8123 7.02371C16.5324 6.72947 16.5345 6.2546 16.8171 5.96307L20.3047 2.36362C19.4643 2.28616 18.4151 2.25879 17.7938 2.24993C17.3961 2.24426 17.0783 1.90391 17.0836 1.48974Z" fill="black"/>
<path d="M12.74 16.4936C12.5715 16.4936 12.4117 16.4234 12.2976 16.3005L8.92675 12.6698C8.70027 12.4257 8.71431 12.043 8.95835 11.8165C9.07071 11.713 9.21643 11.655 9.36917 11.655H11.037C11.6164 11.655 12.1413 11.3144 12.3783 10.7877H9.92747C9.59389 10.7825 9.32704 10.5068 9.33406 10.1732C9.33932 9.8467 9.60267 9.58511 9.92747 9.57984H12.3766C12.1378 9.05315 11.6146 8.71431 11.037 8.71431H9.36917C9.0356 8.71431 8.76523 8.44394 8.76523 8.11036C8.76523 7.77679 9.0356 7.50642 9.36917 7.50642H14.6308C14.9644 7.50642 15.2348 7.77679 15.2348 8.11036C15.2348 8.44394 14.9644 8.71431 14.6308 8.71431H13.2755C13.4493 8.97765 13.5757 9.27085 13.6459 9.57984H14.6326C14.9662 9.58511 15.233 9.86074 15.226 10.1943C15.2207 10.5209 14.9574 10.7825 14.6326 10.7877H13.6477C13.365 12.0026 12.2835 12.8629 11.037 12.8647H10.7561L13.1842 15.4806C13.4107 15.7246 13.3966 16.1073 13.1526 16.3338C13.0402 16.4356 12.8928 16.4936 12.74 16.4936Z" fill="black"/>
</g>
<defs>
<clipPath id="clip0_4380_75">
<rect width="24" height="24" fill="white"/>
</clipPath>
</defs>
</svg>
