<svg width="42" height="42" viewBox="0 0 42 42" fill="none" xmlns="http://www.w3.org/2000/svg">
<g clip-path="url(#clip0_1414_4617)">
<path d="M24.6425 14.7857C25.8276 14.7857 26.788 15.7461 26.788 16.9311C26.788 17.2239 26.7327 17.4978 26.6324 17.7431C26.6153 17.7851 26.5967 17.8265 26.5769 17.8673L23.7064 14.9967C23.7471 14.9769 23.7885 14.9583 23.8306 14.9412C24.0759 14.841 24.3498 14.7857 24.6425 14.7857ZM24.6425 13.4307C24.1808 13.4307 23.7349 13.5236 23.3225 13.692C22.9147 13.8587 22.5468 14.0979 22.2354 14.3931C22.2191 14.4066 22.2032 14.421 22.1879 14.4363C21.9234 14.7008 21.9234 15.1299 22.1879 15.3944L26.1712 19.3776C26.4412 19.6493 26.8722 19.6564 27.1421 19.381C27.4556 19.0609 27.7076 18.6771 27.8816 18.2513C28.0501 17.8388 28.1431 17.3928 28.1431 16.9312C28.1431 14.998 26.5757 13.4307 24.6425 13.4307Z" fill="#0037D7"/>
<path d="M30.5971 9.48591C30.5971 9.11165 30.7487 8.7729 30.9939 8.52772C31.2391 8.28255 31.5778 8.13089 31.9521 8.13089C32.3263 8.13089 32.6652 8.28255 32.9103 8.52772C33.1554 8.7729 33.3071 9.11165 33.3071 9.48591C33.3071 9.86017 33.1554 10.199 32.9103 10.4441C32.6652 10.6893 32.3263 10.8409 31.9521 10.8409C31.5778 10.8409 31.2391 10.6893 30.9939 10.4441C30.7487 10.199 30.5971 9.86017 30.5971 9.48591ZM30.0358 7.56967C29.5454 8.06015 29.242 8.73766 29.242 9.48591C29.242 10.2342 29.5454 10.9117 30.0358 11.4021C30.5263 11.8926 31.2038 12.1959 31.9521 12.1959C32.7004 12.1959 33.3779 11.8926 33.8683 11.4021C34.3588 10.9117 34.6621 10.2342 34.6621 9.48591C34.6621 8.73766 34.3588 8.06015 33.8683 7.56967C33.3779 7.07926 32.7004 6.77588 31.9521 6.77588C31.2038 6.77588 30.5263 7.07926 30.0358 7.56967Z" fill="#0783FF"/>
<path d="M8.38222 26.4161C8.38222 26.0418 8.53388 25.7031 8.77905 25.4579C9.02423 25.2127 9.36298 25.0611 9.73724 25.0611C10.1115 25.0611 10.4503 25.2127 10.6954 25.4579C10.9406 25.7031 11.0923 26.0418 11.0923 26.4161C11.0923 26.7903 10.9406 27.1292 10.6954 27.3743C10.4503 27.6194 10.1115 27.7711 9.73724 27.7711C9.36298 27.7711 9.02423 27.6194 8.77905 27.3743C8.53388 27.1292 8.38222 26.7903 8.38222 26.4161ZM7.821 24.4999C7.33052 24.9903 7.0272 25.6678 7.0272 26.4161C7.0272 27.1644 7.33052 27.8419 7.821 28.3323C8.31141 28.8228 8.98899 29.1261 9.73723 29.1261C10.4855 29.1261 11.1631 28.8228 11.6535 28.3323C12.1439 27.8419 12.4473 27.1644 12.4473 26.4161C12.4473 25.6678 12.1439 24.9903 11.6535 24.4999C11.1631 24.0094 10.4855 23.7061 9.73723 23.7061C8.98898 23.7061 8.31141 24.0094 7.821 24.4999Z" fill="#0783FF"/>
<path d="M16.6124 28.412V31.8362C16.6124 32.2656 16.2643 32.6137 15.8349 32.6137H14.4799C14.3203 32.6137 14.176 32.6782 14.0715 32.7828L14.0714 32.7828C13.9669 32.8873 13.9024 33.0316 13.9024 33.1912C13.9024 33.3508 13.9669 33.4951 14.0715 33.5997C14.176 33.7042 14.3203 33.7687 14.4799 33.7687H20.5775C20.737 33.7687 20.8813 33.7042 20.9858 33.5997C21.0904 33.4951 21.1549 33.3508 21.1549 33.1912C21.1549 33.0316 21.0904 32.8873 20.9858 32.7828L20.9858 32.7828C20.8813 32.6782 20.737 32.6137 20.5775 32.6137H19.2224C18.793 32.6137 18.4449 32.2656 18.4449 31.8362V29.485C17.9661 29.2514 17.4942 28.9866 17.0317 28.6907C16.8903 28.6002 16.7505 28.5073 16.6124 28.412ZM12.972 34.6991L13.0427 34.6284L12.972 34.6991C12.5862 34.3133 12.3473 33.78 12.3473 33.1912C12.3473 32.6024 12.5862 32.0692 12.972 31.6833C13.3578 31.2975 13.8911 31.0586 14.4799 31.0586H15.0574V27.1666C15.0541 27.1636 15.0508 27.1605 15.0475 27.1575C15.0279 27.1393 15.0079 27.1207 14.9876 27.1017C12.1439 24.4447 10.5381 20.7457 10.5381 16.8432C10.5381 13.246 11.9106 9.64841 14.6552 6.90357L14.6552 6.90356C14.9589 6.59999 15.4512 6.59999 15.7548 6.90356L15.7548 6.90357L22.79 13.9389L23.2167 14.3656L23.7771 14.9259L23.7064 14.9966L23.7771 14.9259L26.6476 17.7965L26.5769 17.8672L26.6476 17.7965L27.208 18.3569L27.6346 18.7835L34.5344 25.6832C34.838 25.9868 34.838 26.4791 34.5344 26.7828L34.5333 26.7838C30.6361 30.5676 25.1593 31.916 20 30.1297V31.0586H20.5775C21.1662 31.0586 21.6996 31.2975 22.0853 31.6834C22.4711 32.0692 22.71 32.6024 22.71 33.1912C22.71 33.78 22.4711 34.3133 22.0853 34.6991C21.6996 35.0849 21.1662 35.3238 20.5775 35.3238H14.4799C13.8911 35.3238 13.3578 35.0849 12.972 34.6991ZM16.3482 26.2391L16.3484 26.2392C16.8213 26.6571 17.3331 27.0441 17.8646 27.3842C18.396 27.7242 18.9548 28.0227 19.5354 28.2794L19.5678 28.2936C23.9824 30.2295 29.2622 29.4039 32.8682 26.2162L15.222 8.5697C13.1363 10.9281 12.0932 13.8854 12.0932 16.8431C12.0932 20.3064 13.5274 23.6131 16.0451 25.9657C16.1296 26.0445 16.2312 26.1361 16.3482 26.2391Z" fill="#0037D7" stroke="#0037D7" stroke-width="0.2"/>
</g>
<defs>
<clipPath id="clip0_1414_4617">
<rect width="27.6349" height="28.4516" fill="white" transform="matrix(-1 0 0 1 34.6621 6.77417)"/>
</clipPath>
</defs>
</svg>
