<svg width="42" height="42" viewBox="0 0 42 42" fill="none" xmlns="http://www.w3.org/2000/svg">
<path fill-rule="evenodd" clip-rule="evenodd" d="M9.30432 19.051C8.63333 18.6799 8.25635 18.0303 8.25635 17.351C8.25635 16.6705 8.63333 16.0209 9.30432 15.651L19.1604 10.2037C20.2795 9.58607 21.7211 9.58607 22.8402 10.2037L32.6963 15.651C33.3673 16.0209 33.7443 16.6705 33.7443 17.351C33.7443 18.0303 33.3673 18.6799 32.6963 19.051L22.8402 24.4971C21.7211 25.1159 20.2795 25.1159 19.1604 24.4971L9.30432 19.051ZM10.1638 17.4944L20.0199 22.9405C20.6162 23.2701 21.3844 23.2701 21.9807 22.9405L31.8368 17.4944C31.902 17.4589 31.966 17.4162 31.966 17.351C31.966 17.2846 31.902 17.2431 31.8368 17.2064L21.9807 11.7602C21.3844 11.4307 20.6162 11.4307 20.0199 11.7602L10.1638 17.2064C10.0986 17.2431 10.0346 17.2846 10.0346 17.351C10.0346 17.4162 10.0986 17.4589 10.1638 17.4944Z" fill="#0037D7"/>
<path fill-rule="evenodd" clip-rule="evenodd" d="M28.4098 20.1108C28.4098 19.62 28.8081 19.2217 29.2989 19.2217C29.7897 19.2217 30.188 19.62 30.188 20.1108V25.4455C30.188 27.9006 28.1976 29.891 25.7424 29.891H16.2586C13.8034 29.891 11.813 27.9006 11.813 25.4455V20.1108C11.813 19.62 12.2113 19.2217 12.7021 19.2217C13.1929 19.2217 13.5912 19.62 13.5912 20.1108V25.4455C13.5912 26.919 14.785 28.1128 16.2586 28.1128H25.7424C27.216 28.1128 28.4098 26.919 28.4098 25.4455V20.1108Z" fill="#0037D7"/>
<path fill-rule="evenodd" clip-rule="evenodd" d="M20.3718 18.3682C20.0245 18.022 20.0245 17.4577 20.3718 17.1116C20.718 16.7642 21.2823 16.7642 21.6285 17.1116L25.7776 21.2608C25.9448 21.4267 26.0385 21.6532 26.0385 21.8891V31.373C26.0385 31.8637 25.6401 32.2621 25.1493 32.2621C24.6585 32.2621 24.2602 31.8637 24.2602 31.373V22.2578L20.3718 18.3682Z" fill="#0783FF"/>
</svg>
