<svg width="42" height="42" viewBox="0 0 42 42" fill="none" xmlns="http://www.w3.org/2000/svg">
<g clip-path="url(#clip0_1414_4609)">
<path d="M11.4976 18.2216C12.2649 18.2216 12.8869 17.5996 12.8869 16.8324C12.8869 16.0651 12.2649 15.4431 11.4976 15.4431C10.7304 15.4431 10.1084 16.0651 10.1084 16.8324C10.1084 17.5996 10.7304 18.2216 11.4976 18.2216Z" fill="#0783FF"/>
<path d="M34.1146 14.3317H16.0599C15.5197 12.318 13.6796 10.8308 11.4978 10.8308C8.89334 10.8308 6.77441 12.9497 6.77441 15.5542V30.0579C6.77441 30.6717 7.27198 31.1693 7.88581 31.1693H15.1098C15.7237 31.1693 16.2212 30.6717 16.2212 30.0579V23.2228C16.8287 23.2228 33.5584 23.2228 34.1146 23.2228C34.7285 23.2228 35.226 22.7253 35.226 22.1114V15.4431C35.226 14.8293 34.7285 14.3317 34.1146 14.3317ZM13.9985 28.9465H8.9972V15.5542C8.9972 14.1754 10.119 13.0536 11.4978 13.0536C12.8767 13.0536 13.9985 14.1754 13.9985 15.5542C13.9985 16.289 13.9985 28.2132 13.9985 28.9465ZM16.2212 21V16.5545H21.595L18.9236 21H16.2212ZM21.5169 21L24.1882 16.5545H27.7076L25.0363 21H21.5169ZM33.0032 21H27.6295L30.3008 16.5545H33.0032V21Z" fill="#0037D7"/>
</g>
<defs>
<clipPath id="clip0_1414_4609">
<rect width="28.4516" height="28.4516" fill="white" transform="translate(6.77441 6.77417)"/>
</clipPath>
</defs>
</svg>
