<svg width="42" height="42" viewBox="0 0 42 42" fill="none" xmlns="http://www.w3.org/2000/svg">
<g clip-path="url(#clip0_1414_4621)">
<path d="M30.1936 14.8354H23.5549C23.5549 14.3119 23.13 13.8871 22.6065 13.8871H21.6581V11.9903H23.5549C24.0784 11.9903 24.5032 11.5654 24.5032 11.0419C24.5032 10.5184 24.0784 10.0935 23.5549 10.0935H17.8645C17.341 10.0935 16.9161 10.5184 16.9161 11.0419C16.9161 11.5654 17.341 11.9903 17.8645 11.9903H19.7613V13.8871H18.8129C18.2894 13.8871 17.8645 14.3119 17.8645 14.8354H11.2258C8.61112 14.8354 6.48389 16.9627 6.48389 19.5774V30.958C6.48389 31.4815 6.90876 31.9064 7.43227 31.9064C7.95578 31.9064 8.38066 31.4815 8.38066 30.958V19.5774C8.38066 18.0087 9.65719 16.7322 11.2258 16.7322H17.8645V18.629H12.1742C11.1281 18.629 10.2774 19.4797 10.2774 20.5258V30.958C10.2774 31.4815 10.7023 31.9064 11.2258 31.9064C11.7493 31.9064 12.1742 31.4815 12.1742 30.958V20.5258H17.8645C17.8645 21.0493 18.2894 21.4742 18.8129 21.4742H22.6065C23.13 21.4742 23.5549 21.0493 23.5549 20.5258H29.2452V30.958C29.2452 31.4815 29.6701 31.9064 30.1936 31.9064C30.7171 31.9064 31.142 31.4815 31.142 30.958V20.5258C31.142 19.4797 30.2912 18.629 29.2452 18.629H23.5549V16.7322H30.1936C31.7622 16.7322 33.0387 18.0087 33.0387 19.5774V30.958C33.0387 31.4815 33.4636 31.9064 33.9871 31.9064C34.5106 31.9064 34.9355 31.4815 34.9355 30.958V19.5774C34.9355 16.9627 32.8083 14.8354 30.1936 14.8354ZM21.6581 19.5774H19.7613V15.7838H21.6581V19.5774Z" fill="#0037D7"/>
</g>
<defs>
<clipPath id="clip0_1414_4621">
<rect width="28.4516" height="28.4516" fill="white" transform="translate(6.48389 6.77417)"/>
</clipPath>
</defs>
</svg>
