<svg width="42" height="42" viewBox="0 0 42 42" fill="none" xmlns="http://www.w3.org/2000/svg">
<path d="M13.5496 30.2573L13.5497 30.2574C13.8771 30.5848 14.2804 30.8039 14.7168 30.9094V32.166C14.7168 32.5502 14.8667 32.9123 15.1382 33.1849L15.1391 33.1858C15.408 33.453 15.7775 33.6061 16.156 33.6061H25.8442C26.2231 33.6061 26.5928 33.4531 26.8615 33.185L26.6849 33.008L26.8615 33.185C27.1337 32.9133 27.2834 32.5504 27.2834 32.166V30.9078C27.7196 30.8007 28.1276 30.5807 28.4509 30.2574L28.451 30.2573C28.9224 29.7854 29.1821 29.1573 29.1821 28.4913L29.1821 15.941L29.1821 15.9409C29.1816 15.2741 28.9215 14.6459 28.45 14.1749C27.9848 13.7098 27.342 13.4434 26.6844 13.4434H25.7964V11.4289H26.4168C27.2537 11.4289 27.9338 10.7489 27.9338 9.91196C27.9338 9.07516 27.2538 8.39453 26.4168 8.39453H15.5821C14.7451 8.39453 14.0651 9.07516 14.0651 9.91196C14.0651 10.7489 14.7452 11.4289 15.5821 11.4289H16.2025V13.4438H15.3149C14.6574 13.4438 14.0146 13.7102 13.5498 14.1749C13.0777 14.6461 12.8181 15.2743 12.8181 15.941V28.4913C12.8181 29.1579 13.0783 29.7855 13.5496 30.2573ZM27.4682 15.1574L27.4685 15.1577C27.678 15.3668 27.793 15.6441 27.793 15.941V17.9276H14.2072V15.941C14.2072 15.6442 14.3222 15.3668 14.5319 15.1571C14.738 14.951 15.0243 14.8325 15.3153 14.8325H26.6849C26.9759 14.8325 27.2621 14.951 27.4682 15.1574ZM25.8939 32.1659V32.166C25.8939 32.1808 25.8886 32.1926 25.8795 32.2017L25.8788 32.2024C25.8701 32.2112 25.8563 32.217 25.8438 32.217H16.156C16.1444 32.217 16.1298 32.2114 16.1199 32.2018C16.1112 32.1929 16.1059 32.1813 16.1059 32.166V30.9881H25.8942L25.8939 32.1659ZM14.532 29.2754L14.5317 29.2751C14.3218 29.0655 14.2068 28.7878 14.2068 28.4913V27.1947H27.7926V28.4913C27.7926 28.7878 27.6775 29.0656 27.4679 29.2752C27.2621 29.4805 26.9758 29.5994 26.6844 29.5994H15.3149C15.0183 29.5994 14.741 29.4847 14.532 29.2754ZM15.4542 9.91152C15.4542 9.84109 15.5117 9.78364 15.5821 9.78364H26.4173C26.4873 9.78364 26.5451 9.84115 26.5451 9.91196C26.5451 9.98239 26.4877 10.0398 26.4173 10.0398H25.104H25.1039H25.1037H25.1032H25.1025H25.1017H25.1006H25.0994H25.098H25.0965H25.0947H25.0928H25.0907H25.0884H25.0859H25.0832H25.0804H25.0774H25.0742H25.0709H25.0673H25.0636H25.0598H25.0557H25.0515H25.0471H25.0426H25.0378H25.0329H25.0279H25.0227H25.0173H25.0117H25.006H25.0001H24.994H24.9878H24.9815H24.9749H24.9682H24.9614H24.9544H24.9472H24.9399H24.9324H24.9248H24.917H24.909H24.9009H24.8927H24.8843H24.8757H24.867H24.8582H24.8492H24.84H24.8307H24.8213H24.8117H24.8019H24.792H24.782H24.7718H24.7615H24.7511H24.7405H24.7297H24.7189H24.7079H24.6967H24.6854H24.674H24.6624H24.6507H24.6389H24.627H24.6149H24.6026H24.5903H24.5778H24.5652H24.5524H24.5395H24.5265H24.5134H24.5001H24.4868H24.4733H24.4596H24.4459H24.432H24.418H24.4039H24.3896H24.3753H24.3608H24.3462H24.3315H24.3167H24.3017H24.2866H24.2715H24.2562H24.2408H24.2253H24.2096H24.1939H24.178H24.1621H24.146H24.1298H24.1136H24.0972H24.0807H24.0641H24.0474H24.0306H24.0137H23.9967H23.9795H23.9623H23.945H23.9276H23.9101H23.8925H23.8748H23.857H23.8391H23.8211H23.803H23.7848H23.7666H23.7482H23.7298H23.7112H23.6926H23.6739H23.6551H23.6362H23.6172H23.5981H23.579H23.5597H23.5404H23.521H23.5015H23.4819H23.4623H23.4426H23.4227H23.4029H23.3829H23.3629H23.3427H23.3225H23.3023H23.2819H23.2615H23.241H23.2205H23.1998H23.1791H23.1584H23.1375H23.1166H23.0956H23.0746H23.0535H23.0323H23.0111H22.9898H22.9684H22.947H22.9255H22.9039H22.8823H22.8607H22.8389H22.8171H22.7953H22.7734H22.7514H22.7294H22.7074H22.6852H22.6631H22.6408H22.6186H22.5962H22.5739H22.5514H22.529H22.5064H22.4839H22.4613H22.4386H22.4159H22.3931H22.3704H22.3475H22.3246H22.3017H22.2788H22.2558H22.2327H22.2097H22.1865H22.1634H22.1402H22.117H22.0937H22.0705H22.0471H22.0238H22.0004H21.977H21.9535H21.9301H21.9065H21.883H21.8595H21.8359H21.8123H21.7886H21.765H21.7413H21.7176H21.6938H21.6701H21.6463H21.6225H21.5987H21.5749H21.5511H21.5272H21.5033H21.4794H21.4555H21.4316H21.4077H21.3837H21.3597H21.3358H21.3118H21.2878H21.2638H21.2398H21.2158H21.1918H21.1677H21.1437H21.1197H21.0956H21.0716H21.0475H21.0235H20.9994H20.9754H20.9514H20.9273H20.9033H20.8792H20.8552H20.8312H20.8071H20.7831H20.7591H20.7351H20.7111H20.6871H20.6631H20.6391H20.6152H20.5912H20.5673H20.5434H20.5195H20.4956H20.4717H20.4478H20.424H20.4002H20.3764H20.3526H20.3288H20.305H20.2813H20.2576H20.2339H20.2103H20.1866H20.163H20.1394H20.1159H20.0923H20.0688H20.0454H20.0219H19.9985H19.9751H19.9518H19.9284H19.9052H19.8819H19.8587H19.8355H19.8123H19.7892H19.7662H19.7431H19.7201H19.6972H19.6742H19.6514H19.6285H19.6057H19.583H19.5603H19.5376H19.515H19.4924H19.4699H19.4475H19.425H19.4027H19.3803H19.3581H19.3358H19.3137H19.2915H19.2695H19.2475H19.2255H19.2036H19.1818H19.16H19.1382H19.1166H19.095H19.0734H19.0519H19.0305H19.0091H18.9878H18.9666H18.9454H18.9243H18.9033H18.8823H18.8614H18.8405H18.8198H18.7991H18.7784H18.7579H18.7374H18.717H18.6966H18.6764H18.6562H18.636H18.616H18.596H18.5761H18.5563H18.5366H18.517H18.4974H18.4779H18.4585H18.4392H18.4199H18.4008H18.3817H18.3627H18.3438H18.325H18.3063H18.2877H18.2691H18.2507H18.2323H18.2141H18.1959H18.1778H18.1598H18.1419H18.1241H18.1064H18.0888H18.0713H18.0539H18.0366H18.0194H18.0022H17.9852H17.9683H17.9515H17.9348H17.9182H17.9017H17.8853H17.8691H17.8529H17.8368H17.8209H17.805H17.7893H17.7736H17.7581H17.7427H17.7274H17.7123H17.6972H17.6822H17.6674H17.6527H17.6381H17.6236H17.6093H17.595H17.5809H17.5669H17.553H17.5393H17.5256H17.5121H17.4987H17.4855H17.4724H17.4594H17.4465H17.4337H17.4211H17.4086H17.3963H17.384H17.3719H17.36H17.3481H17.3365H17.3249H17.3135H17.3022H17.291H17.28H17.2691H17.2584H17.2478H17.2374H17.227H17.2169H17.2069H17.197H17.1872H17.1776H17.1682H17.1589H17.1497H17.1407H17.1319H17.1232H17.1146H17.1062H17.098H17.0899H17.0819H17.0741H17.0665H17.059H17.0517H17.0445H17.0375H17.0307H17.024H17.0174H17.0111H17.0048H16.9988H16.9929H16.9872H16.9816H16.9762H16.971H16.9659H16.9611H16.9563H16.9518H16.9474H16.9432H16.9391H16.9353H16.9315H16.928H16.9247H16.9215H16.9185H16.9157H16.913H16.9105H16.9082H16.9061H16.9042H16.9024H16.9008H16.8995H16.8982H16.8972H16.8964H16.8957H16.8952H16.895H16.8949H15.5821C15.5123 10.0398 15.4542 9.98213 15.4542 9.91152ZM17.5916 11.4289H24.4077V13.4438H17.5916V11.4289ZM27.7926 25.8056H14.2072V19.3167H27.793L27.7926 25.8056Z" fill="#0037D7" stroke="#0037D7" stroke-width="0.5"/>
<path d="M20.9998 24.6992C21.8071 24.6992 22.4642 24.0422 22.4642 23.2353C22.4642 22.2457 21.5102 20.2141 21.4012 19.9856C21.3275 19.8309 21.1714 19.7322 20.9998 19.7322C20.8282 19.7322 20.6722 19.8309 20.5984 19.9856C20.4895 20.2141 19.5359 22.2457 19.5359 23.2353C19.5359 24.0426 20.1925 24.6992 20.9998 24.6992ZM20.9998 21.2837C21.2968 22.0136 21.5751 22.8303 21.5751 23.2353C21.5751 23.5523 21.3168 23.8101 20.9998 23.8101C20.6828 23.8101 20.425 23.5523 20.425 23.2353C20.425 22.8303 20.7033 22.0136 20.9998 21.2837Z" fill="#0783FF"/>
</svg>
