<svg width="42" height="42" viewBox="0 0 42 42" fill="none" xmlns="http://www.w3.org/2000/svg">
<g clip-path="url(#clip0_1414_4622)">
<path d="M33.0559 14.4909L33.0554 14.4638C33.0419 13.7545 33.0292 13.0845 33.0292 12.4399C33.0292 11.4634 32.2348 10.6691 31.2584 10.6691C27.4802 10.6691 24.6128 9.59187 22.2342 7.27914C21.5419 6.60588 20.4573 6.60583 19.7651 7.27908C17.3866 9.59187 14.5194 10.6691 10.7418 10.6691C9.76538 10.6691 8.971 11.4634 8.971 12.4399C8.971 13.0983 8.95805 13.7749 8.94433 14.4914C8.88043 17.8364 8.80092 21.9992 10.1979 25.7779C10.9661 27.8557 12.1292 29.6614 13.6549 31.1448C15.3926 32.8343 17.6687 34.1745 20.4195 35.128C20.6066 35.1929 20.8017 35.2258 20.9996 35.2258C21.1977 35.2258 21.3929 35.1928 21.5795 35.1281C24.3308 34.1744 26.607 32.8343 28.3448 31.1447C29.8707 29.6613 31.034 27.8555 31.8022 25.7777C33.1993 21.9987 33.1198 17.8358 33.0559 14.4909ZM30.2386 25.1996C28.7653 29.1844 25.7544 31.9169 21.0331 33.5533C21.0115 33.5608 20.9879 33.5609 20.9655 33.5531C16.2451 31.9169 13.2344 29.1846 11.7613 25.2C10.4735 21.7164 10.5464 17.8949 10.6108 14.5233C10.6247 13.7987 10.6378 13.1143 10.6378 12.4399C10.6378 12.3826 10.6844 12.3359 10.7418 12.3359C14.9811 12.3359 18.2176 11.1088 20.9271 8.47407C20.9474 8.45434 20.9735 8.44445 20.9995 8.44445C21.0256 8.44445 21.0517 8.4544 21.072 8.47412C23.7817 11.1088 27.0185 12.3359 31.2583 12.3359C31.3156 12.3359 31.3623 12.3826 31.3623 12.4399C31.3623 13.1003 31.3751 13.778 31.3888 14.4954L31.3893 14.5226V14.5227C31.4537 17.8944 31.5267 21.7159 30.2386 25.1996Z" fill="#0037D7"/>
<path d="M26.1786 18.2267H23.4969V15.5446C23.4969 15.0843 23.1237 14.7112 22.6635 14.7112H19.3371C18.8769 14.7112 18.5037 15.0843 18.5037 15.5446V18.2267H15.8215C15.3612 18.2267 14.988 18.5998 14.988 19.0601V22.3864C14.988 22.8467 15.3612 23.2199 15.8215 23.2199H18.5037V25.9019C18.5037 26.3622 18.8769 26.7353 19.3371 26.7353H22.6635C23.1237 26.7353 23.4969 26.3622 23.4969 25.9019V23.2199H26.1787C26.639 23.2199 27.0121 22.8467 27.0121 22.3864V19.0601C27.0121 18.5998 26.6389 18.2267 26.1786 18.2267ZM25.3452 21.553H22.6635C22.2032 21.553 21.83 21.9262 21.83 22.3864V25.0684H20.1706V22.3864C20.1706 21.9262 19.7974 21.553 19.3371 21.553H16.6549V19.8936H19.3371C19.7974 19.8936 20.1706 19.5204 20.1706 19.0601V16.3781H21.83V19.0601C21.83 19.5204 22.2032 19.8936 22.6635 19.8936H25.3452V21.553H25.3452Z" fill="#0783FF"/>
</g>
<defs>
<clipPath id="clip0_1414_4622">
<rect width="28.4516" height="28.4516" fill="white" transform="translate(6.77417 6.77417)"/>
</clipPath>
</defs>
</svg>
