<svg width="42" height="42" viewBox="0 0 42 42" fill="none" xmlns="http://www.w3.org/2000/svg">
<path d="M33.4477 32.5585C33.4477 33.0493 33.0502 33.4476 32.5585 33.4476H9.4416C8.94992 33.4476 8.55249 33.0493 8.55249 32.5585C8.55249 32.0677 8.94992 31.6694 9.4416 31.6694H10.3307V15.3257C10.3307 14.6473 10.7077 14.0383 11.3132 13.7351L21.9825 8.40039C22.5391 8.12299 23.1846 8.15144 23.7128 8.47774C24.2409 8.80405 24.5556 9.36952 24.5556 9.99101V16.5544H29.8903C30.871 16.5544 31.6685 17.352 31.6685 18.3327V31.6694H32.5576C33.0493 31.6694 33.4477 32.0677 33.4477 32.5585ZM24.5565 18.3327V31.6694H29.8912V18.3327H24.5565ZM12.1089 31.6694H22.7783V9.99101L12.1089 15.3257V31.6694Z" fill="#0037D7"/>
<path d="M14.7761 17.4436C14.2844 17.4436 13.887 17.8419 13.887 18.3327C13.887 18.8235 14.2844 19.2218 14.7761 19.2218H20.1108C20.6024 19.2218 20.9999 18.8235 20.9999 18.3327C20.9999 17.8419 20.6024 17.4436 20.1108 17.4436H14.7761Z" fill="#0783FF"/>
<path d="M14.7761 21.0001H20.1108C20.6024 21.0001 20.9999 21.3984 20.9999 21.8892C20.9999 22.38 20.6024 22.7783 20.1108 22.7783H14.7761C14.2844 22.7783 13.887 22.38 13.887 21.8892C13.887 21.3984 14.2844 21.0001 14.7761 21.0001Z" fill="#0783FF"/>
<path d="M14.7761 24.5565H20.1108C20.6024 24.5565 20.9999 24.9548 20.9999 25.4456C20.9999 25.9364 20.6024 26.3347 20.1108 26.3347H14.7761C14.2844 26.3347 13.887 25.9364 13.887 25.4456C13.887 24.9548 14.2844 24.5565 14.7761 24.5565Z" fill="#0783FF"/>
<path d="M14.7761 28.113H20.1108C20.6024 28.113 20.9999 28.5113 20.9999 29.0021C20.9999 29.4929 20.6024 29.8912 20.1108 29.8912H14.7761C14.2844 29.8912 13.887 29.4929 13.887 29.0021C13.887 28.5113 14.2844 28.113 14.7761 28.113Z" fill="#0783FF"/>
</svg>
