<svg width="28" height="28" viewBox="0 0 28 28" fill="none" xmlns="http://www.w3.org/2000/svg">
<path d="M15.9712 4.90601H24.3622C25.6509 4.90601 26.6955 5.95067 26.6955 7.23934V21.3229C26.6955 22.6115 25.6509 23.6562 24.3622 23.6562H7.66738M12.5272 7.83534H5.86098M8.59775 13.6797H1.23047M9.60591 19.3415H4.67319" stroke="#1D1D1D" stroke-width="1.75" stroke-linecap="round" stroke-linejoin="round"/>
<path fill-rule="evenodd" clip-rule="evenodd" d="M15.3451 10.7738C16.1694 10.7738 16.7069 11.0377 17.0215 11.3591C17.3391 11.6834 17.4691 12.1038 17.4222 12.5065C17.3756 12.9067 17.1519 13.3059 16.7223 13.5809C16.2916 13.8567 15.6124 14.0315 14.6348 13.8813C14.397 13.8448 14.1612 13.958 14.041 14.1663C13.9207 14.3747 13.9408 14.6355 14.0914 14.8231L17.2331 18.7361C17.4348 18.9873 17.802 19.0274 18.0532 18.8257C18.3044 18.624 18.3445 18.2569 18.1428 18.0057L15.7936 15.0797C16.3983 15.0185 16.9212 14.839 17.3515 14.5634C18.0739 14.1008 18.4936 13.3915 18.581 12.6416C18.657 11.9896 18.4801 11.3193 18.0568 10.7738H19.3973C19.7195 10.7738 19.9806 10.5127 19.9806 10.1905C19.9806 9.86834 19.7195 9.60718 19.3973 9.60718H15.3451H14.5828C14.2607 9.60718 13.9995 9.86834 13.9995 10.1905C13.9995 10.5127 14.2607 10.7738 14.5828 10.7738H15.3451Z" fill="#0033A1"/>
<path d="M20.073 16.0067C19.8777 16.1966 19.4173 16.3648 19.0808 16.1966C18.1433 15.7278 18.2084 14.8414 18.7058 14.3216C19.3933 13.6031 20.0849 13.8946 20.4558 14.0715C21.3039 14.4761 21.9792 15.0305 22.698 16.1321" stroke="#0033A1" stroke-linecap="round"/>
</svg>
