<svg width="42" height="42" viewBox="0 0 42 42" fill="none" xmlns="http://www.w3.org/2000/svg">
<path d="M20.9999 33.5748C20.6468 33.5745 20.2996 33.4839 19.9915 33.3115L15.9963 31.0922C14.0102 29.9878 12.3553 28.3728 11.2029 26.4142C10.0504 24.4556 9.4423 22.2246 9.44141 19.9522V13.7927C9.44107 13.2798 9.63102 12.7851 9.9745 12.4043C10.318 12.0235 10.7905 11.7837 11.3007 11.7314C12.89 11.563 14.4543 11.2095 15.9616 10.6779C17.3436 10.1895 18.6694 9.55453 19.9163 8.78391C20.2425 8.58442 20.6175 8.4789 21 8.479C21.3824 8.47911 21.7573 8.58482 22.0835 8.78449C23.3305 9.55469 24.6563 10.1894 26.0382 10.6779C27.5455 11.2095 29.1097 11.563 30.6991 11.7314C31.2092 11.7838 31.6818 12.0236 32.0252 12.4044C32.3687 12.7852 32.5587 13.2799 32.5583 13.7927V19.9522C32.5575 22.2247 31.9493 24.4556 30.7969 26.4142C29.6444 28.3728 27.9895 29.9878 26.0034 31.0922L22.0071 33.3121C21.6993 33.4842 21.3525 33.5746 20.9999 33.5748ZM20.9999 10.2553C20.9476 10.2551 20.8963 10.2693 20.8517 10.2964C19.4966 11.1332 18.0559 11.8234 16.5543 12.3542C14.9161 12.9323 13.2158 13.3166 11.4882 13.4991C11.4148 13.5055 11.3465 13.5392 11.2967 13.5936C11.247 13.6479 11.2195 13.719 11.2196 13.7927V19.9522C11.2203 21.9076 11.7436 23.8272 12.7353 25.5124C13.7269 27.1977 15.1509 28.5872 16.8599 29.5374L20.8563 31.7573C20.9 31.7818 20.9492 31.7948 20.9992 31.7949C21.0493 31.795 21.0985 31.7822 21.1423 31.7578L25.1398 29.5374C26.8488 28.5873 28.2728 27.1977 29.2645 25.5125C30.2562 23.8272 30.7794 21.9076 30.7801 19.9522V13.7927C30.7803 13.719 30.7527 13.6479 30.703 13.5936C30.6533 13.5392 30.5849 13.5056 30.5115 13.4992C28.7839 13.3166 27.0837 12.9323 25.4454 12.3542C23.9438 11.8234 22.5032 11.1338 21.1481 10.297C21.1036 10.2694 21.0522 10.255 20.9999 10.2553Z" fill="#0037D7"/>
<path d="M20.407 23.6672C20.1893 23.6676 19.9791 23.5876 19.8167 23.4427L17.1493 21.0717C16.9739 20.9149 16.8678 20.6949 16.8543 20.46C16.8407 20.2251 16.9209 19.9944 17.0772 19.8185C17.2335 19.6426 17.4531 19.5358 17.688 19.5216C17.9229 19.5074 18.1538 19.5869 18.3302 19.7426L20.3504 21.5382L24.2044 17.4278C24.2839 17.3411 24.3798 17.2711 24.4865 17.2217C24.5933 17.1724 24.7088 17.1447 24.8263 17.1403C24.9439 17.1359 25.0611 17.1548 25.1713 17.196C25.2814 17.2373 25.3823 17.2999 25.4681 17.3804C25.5538 17.4609 25.6228 17.5576 25.6709 17.6649C25.7191 17.7722 25.7454 17.888 25.7485 18.0056C25.7515 18.1232 25.7312 18.2402 25.6888 18.3499C25.6463 18.4596 25.5825 18.5597 25.501 18.6446L21.0554 23.3865C20.9724 23.4753 20.872 23.546 20.7604 23.5943C20.6489 23.6426 20.5286 23.6674 20.407 23.6672Z" fill="#0783FF"/>
</svg>
