<svg width="42" height="42" viewBox="0 0 42 42" fill="none" xmlns="http://www.w3.org/2000/svg">
<g clip-path="url(#clip0_1414_4611)">
<path d="M28.1131 15.979C28.1131 15.5169 28.4878 15.1422 28.9499 15.1422C29.4121 15.1422 29.7867 15.5169 29.7867 15.979V18.8833C29.7867 19.2555 29.9108 19.6171 30.1393 19.9108L32.0105 22.3167C32.4675 22.9042 32.7156 23.6273 32.7156 24.3717V28.7584C32.7156 29.4914 32.2387 30.139 31.5388 30.3566C28.2736 31.3717 24.7599 31.8785 21.0002 31.8785C17.1986 31.8785 13.6463 31.234 10.3486 29.9437C9.70705 29.6927 9.28485 29.0741 9.28485 28.3852V24.3717C9.28485 23.6273 9.53296 22.9042 9.98994 22.3167L11.8611 19.9108C12.0896 19.6171 12.2137 19.2555 12.2137 18.8833V15.979C12.2137 15.5169 12.5883 15.1422 13.0505 15.1422C13.5127 15.1422 13.8873 15.5169 13.8873 15.979V18.8833C13.8873 19.6277 13.6392 20.3508 13.1822 20.9383L11.311 23.3442C11.0825 23.6379 10.9585 23.9995 10.9585 24.3717V28.3852C14.058 29.5979 17.4035 30.2048 21.0002 30.2048C24.5954 30.2048 27.9418 29.7222 31.042 28.7584V24.3717C31.042 23.9995 30.9179 23.6379 30.6894 23.3442L28.8182 20.9383C28.3612 20.3508 28.1131 19.6277 28.1131 18.8833V15.979ZM8.44804 18.4895C8.44804 18.9516 8.07339 19.3263 7.61123 19.3263C7.14907 19.3263 6.77441 18.9516 6.77441 18.4895V14.5973C6.77441 13.5546 7.41892 12.6205 8.39368 12.2503C12.1349 10.8297 16.3383 10.1213 21.0002 10.1213C25.6621 10.1213 29.8656 10.8297 33.6068 12.2503C34.5815 12.6205 35.226 13.5546 35.226 14.5973V18.4895C35.226 18.9516 34.8514 19.3263 34.3892 19.3263C33.9271 19.3263 33.5524 18.9516 33.5524 18.4895V14.5973C33.5524 14.2497 33.3376 13.9383 33.0126 13.815C29.4695 12.4696 25.4666 11.795 21.0002 11.795C16.5338 11.795 12.5309 12.4696 8.9878 13.815C8.66288 13.9383 8.44804 14.2497 8.44804 14.5973V18.4895Z" fill="#0037D7"/>
<path fill-rule="evenodd" clip-rule="evenodd" d="M21.0004 27.6943C18.2274 27.6943 15.9795 25.4464 15.9795 22.6735C15.9795 19.9005 18.2274 17.6526 21.0004 17.6526C23.7733 17.6526 26.0212 19.9005 26.0212 22.6735C26.0212 25.4464 23.7733 27.6943 21.0004 27.6943ZM24.3476 22.6735C24.3476 24.5221 22.849 26.0207 21.0004 26.0207C19.1517 26.0207 17.6531 24.5221 17.6531 22.6735C17.6531 20.8248 19.1517 19.3262 21.0004 19.3262C22.849 19.3262 24.3476 20.8248 24.3476 22.6735Z" fill="#0783FF"/>
</g>
<defs>
<clipPath id="clip0_1414_4611">
<rect width="28.4516" height="28.4516" fill="white" transform="translate(6.77441 6.77417)"/>
</clipPath>
</defs>
</svg>
