<svg width="42" height="42" viewBox="0 0 42 42" fill="none" xmlns="http://www.w3.org/2000/svg">
<g clip-path="url(#clip0_1414_4631)">
<path d="M30.5867 6.99634H11.0262C10.6581 6.99634 10.3594 7.29502 10.3594 7.66317V32.5583C10.3594 32.9265 10.6581 33.2252 11.0262 33.2252H15.4718C16.0856 33.2252 16.5832 33.7228 16.5832 34.3366C16.5832 34.7047 16.8819 35.0034 17.25 35.0034C17.6181 35.0034 17.9168 34.7047 17.9168 34.3366C17.9168 33.7228 18.4144 33.2252 19.0282 33.2252C19.642 33.2252 20.1396 33.7228 20.1396 34.3366C20.1396 34.7047 20.4383 35.0034 20.8065 35.0034C21.1746 35.0034 21.4733 34.7047 21.4733 34.3366C21.4733 33.7228 21.9709 33.2252 22.5847 33.2252C23.1985 33.2252 23.6961 33.7228 23.6961 34.3366C23.6961 34.7047 23.9948 35.0034 24.3629 35.0034C24.7311 35.0034 25.0297 34.7047 25.0297 34.3366C25.0297 33.7228 25.5273 33.2252 26.1411 33.2252H30.5867C30.9548 33.2252 31.2535 32.9265 31.2535 32.5583V7.66317C31.2535 7.29502 30.9548 6.99634 30.5867 6.99634ZM29.9199 29.8915C29.9199 30.9961 29.0244 31.8915 27.9199 31.8915H13.693C12.5885 31.8915 11.693 30.9961 11.693 29.8915V10.33C11.693 9.22544 12.5885 8.33001 13.693 8.33001H27.9199C29.0244 8.33001 29.9199 9.22544 29.9199 10.33V29.8915Z" fill="#0037D7"/>
<path d="M14.5826 17.2211H27.0302C27.3983 17.2211 27.697 16.9224 27.697 16.5542V11.2196C27.697 10.8514 27.3983 10.5527 27.0302 10.5527H14.5826C14.2145 10.5527 13.9158 10.8514 13.9158 11.2196V16.5542C13.9158 16.9224 14.2145 17.2211 14.5826 17.2211ZM15.2494 11.8864H26.3634V15.8874H15.2494V11.8864Z" fill="#0037D7"/>
<path d="M22.5848 23.8894H20.1067L21.4022 21.2976C21.5672 20.9686 21.4335 20.5683 21.1052 20.4033C20.7788 20.2401 20.3759 20.3712 20.2109 20.702L18.4327 24.2585C18.3285 24.4651 18.3389 24.71 18.4605 24.9071C18.582 25.1033 18.7974 25.2231 19.0283 25.2231H21.5064L20.2109 27.8149C20.046 28.144 20.1797 28.5443 20.5079 28.7092C20.6034 28.757 20.7058 28.7796 20.8066 28.7796C21.0514 28.7796 21.2858 28.645 21.4022 28.4105L23.1804 24.8541C23.2846 24.6474 23.2742 24.4026 23.1526 24.2055C23.0311 24.0093 22.8157 23.8894 22.5848 23.8894Z" fill="#0783FF"/>
<path d="M14.5826 22.5558C14.9509 22.5558 15.2494 22.2573 15.2494 21.889C15.2494 21.5207 14.9509 21.2222 14.5826 21.2222C14.2143 21.2222 13.9158 21.5207 13.9158 21.889C13.9158 22.2573 14.2143 22.5558 14.5826 22.5558Z" fill="#0037D7"/>
</g>
<defs>
<clipPath id="clip0_1414_4631">
<rect width="28.4516" height="28.4516" fill="white" transform="translate(6.58057 6.77417)"/>
</clipPath>
</defs>
</svg>
