<svg width="42" height="42" viewBox="0 0 42 42" fill="none" xmlns="http://www.w3.org/2000/svg">
<g clip-path="url(#clip0_1414_4608)">
<path d="M30.2144 16.0629L23.0294 17.6341L26.5425 5.33184C26.8477 4.26262 25.418 3.57766 24.777 4.48832L10.7627 24.399C10.2358 25.1476 10.9227 26.1523 11.8113 25.9335L18.2134 24.3575L14.7118 36.6715C14.4101 37.7325 15.8147 38.4088 16.4633 37.5338L31.2235 17.6232C31.7682 16.8883 31.1078 15.8676 30.2144 16.0629ZM18.1082 31.9825L20.5893 23.257C20.7968 22.5274 20.1387 21.8397 19.3978 22.0221L13.9117 23.3727L23.0237 10.4269L20.6653 18.6857C20.4601 19.4044 21.0967 20.0883 21.8314 19.9274L28.0536 18.5667L18.1082 31.9825Z" fill="#0037D7"/>
<path d="M29.5736 31.9819L27.1924 31.9422L28.4571 29.4549C28.7055 28.9664 28.5109 28.369 28.0224 28.1207C27.5338 27.8723 26.9366 28.0669 26.6882 28.5554L24.7037 32.4582C24.3 33.2497 24.8284 33.7684 25.5893 33.9003L27.9649 33.9399L26.6853 36.4993C26.4402 36.9894 26.6388 37.5854 27.129 37.8305C27.6201 38.076 28.2156 37.8759 28.4602 37.3868L30.4446 33.4179C30.7705 32.7658 30.2989 31.9926 29.5736 31.9819Z" fill="#0783FF"/>
<path d="M14.1253 4.17183C13.6351 3.92682 13.0391 4.12546 12.794 4.61556L10.8096 8.58445C10.4869 9.22999 10.9471 10.0204 11.7029 10.0204H14.0605L12.794 12.5533C12.549 13.0435 12.7477 13.6394 13.2378 13.8846C13.7288 14.1301 14.3244 13.93 14.569 13.4409L16.5534 9.47197C16.8836 8.81161 16.398 8.03602 15.6659 8.03602H13.3025L14.569 5.50307C14.8141 5.01291 14.6154 4.41691 14.1253 4.17183Z" fill="#0783FF"/>
</g>
<defs>
<clipPath id="clip0_1414_4608">
<rect width="33.871" height="33.871" fill="white" transform="translate(4.06445 4.06445)"/>
</clipPath>
</defs>
</svg>
