<svg width="42" height="42" viewBox="0 0 42 42" fill="none" xmlns="http://www.w3.org/2000/svg">
<path d="M29.9392 19.091C29.0209 17.7196 28.0177 16.6707 27.0468 16.0329C27.2671 15.6977 27.3958 15.2972 27.3958 14.8671C27.3958 13.9977 26.8716 13.2489 26.1229 12.9188L26.9121 10.8603C27.0356 10.5381 27.4113 9.55768 26.8499 8.82544C26.2852 8.08898 25.2725 8.19411 24.5329 8.27091C24.359 8.28897 24.1947 8.30603 24.0794 8.30764C23.5221 8.3147 23.2015 8.10337 22.7956 7.83525C22.3791 7.5599 21.8629 7.21876 21.1277 7.21876C21.1173 7.21876 21.1067 7.21887 21.0962 7.21898C20.3444 7.20853 19.818 7.55612 19.3952 7.83541C18.9893 8.10354 18.6673 8.31581 18.1117 8.3077C17.9961 8.30609 17.8319 8.28903 17.6579 8.27097C16.9183 8.19417 15.9057 8.08903 15.341 8.8255C14.7795 9.55768 15.1553 10.5381 15.2788 10.8604L16.0679 12.9189C15.3193 13.2489 14.7951 13.9977 14.7951 14.8671C14.7951 15.2604 14.9028 15.6289 15.0896 15.9454C14.0764 16.5724 13.0219 17.6549 12.0605 19.091C10.4594 21.4827 9.54102 24.2285 9.54102 26.6245C9.54102 29.001 10.441 30.9918 12.1436 32.3817C14.0943 33.974 17.0741 34.7814 21.0001 34.7814C24.9262 34.7814 27.9058 33.974 29.8565 32.3818C31.5592 30.992 32.4591 29.0012 32.4591 26.6248C32.4591 24.2287 31.5406 21.4827 29.9392 19.091ZM17.4857 9.92911C17.6978 9.95111 17.8982 9.97195 18.0888 9.97462C19.1591 9.9899 19.8267 9.54834 20.314 9.22649C20.66 8.99793 20.8398 8.8859 21.0654 8.8859C21.07 8.8859 21.0747 8.8859 21.0794 8.88601L21.0962 8.88634L21.1131 8.88601C21.3444 8.88212 21.524 8.99309 21.8765 9.22604C22.3638 9.54807 23.0299 9.98862 24.1024 9.97462C24.2926 9.97195 24.4929 9.95117 24.7051 9.92911C24.9118 9.90766 25.2572 9.87181 25.4686 9.88599C25.4535 9.96845 25.4215 10.0912 25.3555 10.2636L24.4066 12.7387H17.7842L16.8354 10.2637C16.7693 10.0912 16.7374 9.96845 16.7222 9.88599C16.9339 9.8717 17.2791 9.90766 17.4857 9.92911ZM16.9234 15.3284C16.6734 15.3284 16.4621 15.1171 16.4621 14.8671C16.4621 14.617 16.6734 14.4058 16.9234 14.4058H25.2674C25.5174 14.4058 25.7287 14.617 25.7287 14.8671C25.7287 15.1171 25.5174 15.3284 25.2674 15.3284H16.9234ZM28.8023 31.0902C27.157 32.4332 24.5319 33.1142 21.0001 33.1142C17.4683 33.1142 14.8431 32.4332 13.1978 31.0901C11.8775 30.0124 11.2081 28.51 11.2081 26.6245C11.2081 24.5809 12.0446 22.1113 13.4458 20.0184C14.7745 18.0338 16.2145 16.9954 16.9503 16.9954H25.0484C25.7846 16.9954 27.225 18.0339 28.554 20.0186C29.9554 22.1116 30.792 24.5811 30.792 26.6248C30.792 28.5101 30.1226 30.0126 28.8023 31.0902Z" fill="#0037D7"/>
<path d="M19.25 28.8559L24.0953 22.2368C24.3672 21.8654 24.2866 21.3438 23.9151 21.0719C23.5437 20.8 23.0221 20.8807 22.7501 21.2521L17.9048 27.8713C17.6328 28.2427 17.7135 28.7643 18.085 29.0362C18.2334 29.1449 18.4059 29.1972 18.5767 29.1972C18.8334 29.1972 19.0867 29.0789 19.25 28.8559Z" fill="#0783FF"/>
<path fill-rule="evenodd" clip-rule="evenodd" d="M20.1827 23.5433V22.8802C20.1827 21.7943 19.2993 20.9109 18.2134 20.9109C17.1275 20.9109 16.2441 21.7943 16.2441 22.8802V23.5433C16.2441 24.6292 17.1275 25.5126 18.2134 25.5126C19.2993 25.5126 20.1827 24.6292 20.1827 23.5433ZM17.9112 22.8802V23.5433C17.9112 23.7072 18.0496 23.8455 18.2134 23.8455C18.3772 23.8455 18.5156 23.7072 18.5156 23.5433V22.8802C18.5156 22.7163 18.3772 22.578 18.2134 22.578C18.0496 22.578 17.9112 22.7163 17.9112 22.8802Z" fill="#0783FF"/>
<path fill-rule="evenodd" clip-rule="evenodd" d="M23.785 24.5969C22.7 24.5969 21.8173 25.4803 21.8173 26.5662V27.2294C21.8173 28.3144 22.7 29.1971 23.785 29.1971C24.8699 29.1971 25.7543 28.3144 25.7543 27.2294V26.5662C25.7543 25.4803 24.8709 24.5969 23.785 24.5969ZM23.785 27.53C23.9488 27.53 24.0872 27.3923 24.0872 27.2294V26.5662C24.0872 26.4024 23.9488 26.264 23.785 26.264C23.6221 26.264 23.4844 26.4024 23.4844 26.5662V27.2294C23.4844 27.3923 23.6221 27.53 23.785 27.53Z" fill="#0783FF"/>
</svg>
