<svg width="42" height="42" viewBox="0 0 42 42" fill="none" xmlns="http://www.w3.org/2000/svg">
<path d="M27.4807 10.7089V10.7089C27.4807 8.53579 25.7191 6.77417 23.546 6.77417H22.849M13.5857 6.77417V6.77417C11.3931 6.77417 9.61572 8.5516 9.61572 10.7442V28.063C9.61572 32.0189 12.8226 35.2258 16.7785 35.2258H27.4807M13.5857 6.77417V6.77417C13.5857 7.50503 14.1782 8.0975 14.909 8.0975H21.5257C22.2566 8.0975 22.849 7.50503 22.849 6.77417V6.77417M13.5857 6.77417H18.2174H22.849" stroke="#0037D7" stroke-width="2.33333" stroke-linecap="round"/>
<path d="M22.4308 18.5411H29.5549M22.4308 22.9436H29.5549M27.5699 32.0574H30.9979C32.0281 32.0574 32.8632 31.2223 32.8632 30.1921V27.4257L32.6977 14.5274C32.692 14.0789 32.2077 13.8006 31.8173 14.0213V14.0213C31.1942 14.3736 30.4414 14.4107 29.7866 14.1215L28.9175 13.7377C28.621 13.6067 28.2814 13.6154 27.992 13.7615L27.1617 14.1806C26.6598 14.434 26.0705 14.4474 25.5575 14.2173L24.7477 13.8539C24.2873 13.6473 23.7629 13.6361 23.2941 13.8228L21.9151 14.3718C21.5786 14.5058 21.2026 14.5001 20.8703 14.3559V14.3559C19.9719 13.9661 18.9683 14.6247 18.9683 15.6041V28.7491V30.1921C18.9683 31.2223 19.8034 32.0574 20.8336 32.0574H27.5699Z" stroke="#0783FF" stroke-width="2.33333" stroke-linecap="round"/>
</svg>
