<svg width="42" height="42" viewBox="0 0 42 42" fill="none" xmlns="http://www.w3.org/2000/svg">
<path d="M27.4809 16.5968V11.4058C27.4809 8.84783 25.4073 6.77417 22.8493 6.77417V6.77417M13.586 6.77417V6.77417C11.3934 6.77417 9.61597 8.5516 9.61597 10.7442V28.063C9.61597 32.0189 12.8229 35.2258 16.7788 35.2258H27.4809M13.586 6.77417V6.77417C13.586 7.50503 14.1784 8.0975 14.9093 8.0975H21.5259C22.2568 8.0975 22.8493 7.50503 22.8493 6.77417V6.77417M13.586 6.77417H18.2176H22.8493" stroke="#0037D7" stroke-width="2.33333" stroke-linecap="round"/>
<path d="M29.8394 21.5504H28.0506C27.9263 20.828 27.6034 20.1532 27.1139 19.6081H29.8341C30.1967 19.6081 30.493 19.3144 30.493 18.9492C30.493 18.584 30.1993 18.2903 29.8341 18.2903H21.5622C21.1997 18.2903 20.906 18.584 20.906 18.9492C20.906 19.3117 21.1997 19.6081 21.5649 19.6081H24.1872C25.3701 19.6107 26.4047 20.4072 26.7064 21.5504H22.4407C22.0782 21.5504 21.7818 21.8441 21.7818 22.2093C21.7818 22.5718 22.0756 22.8682 22.4407 22.8682H26.7064C26.4074 24.0139 25.3727 24.8157 24.1872 24.8157H21.5622C21.1997 24.8157 20.9033 25.1095 20.9033 25.472C20.9033 25.6387 20.9668 25.7975 21.0806 25.9192L26.3835 31.627C26.627 31.8969 27.0451 31.9154 27.3123 31.672C27.5823 31.4285 27.6008 31.0104 27.3573 30.7432C27.3547 30.7405 27.3494 30.7352 27.3467 30.7326L23.0732 26.1309H24.1846C26.1216 26.1309 27.7357 24.7178 28.0506 22.8655H29.8394C30.202 22.8655 30.4983 22.5718 30.4983 22.2066C30.4957 21.8441 30.202 21.5504 29.8394 21.5504Z" fill="#0783FF"/>
</svg>
