<svg width="42" height="42" viewBox="0 0 42 42" fill="none" xmlns="http://www.w3.org/2000/svg">
<path d="M34.3228 16.7142V18.7981H32.4473V30.624H9.57698V30.5719H9.52489V18.7981H7.64941V16.7142H13.6998C13.8486 13.205 16.4881 10.3295 19.8921 9.81532V7.64941H21.9759V9.80067C25.4299 10.2715 28.1223 13.1694 28.2724 16.7142H34.3228ZM22.028 24.0338C22.028 23.4447 21.5491 22.9658 20.9601 22.9658C20.371 22.9658 19.8921 23.4447 19.8921 24.0338V28.5401H22.028V24.0338ZM24.1119 24.0338V28.5401H30.3635V18.7981H11.6087V28.5401H17.8082V24.0338C17.8082 22.2958 19.2222 20.8819 20.9601 20.8819C22.698 20.8819 24.1119 22.2958 24.1119 24.0338ZM15.7861 16.7142H26.1861C26.0238 13.9866 23.7537 11.8171 20.9861 11.8171C18.2185 11.8171 15.9484 13.9866 15.7861 16.7142Z" fill="#0037D7"/>
<path d="M34.3228 32.239H7.64941V34.3229H34.3228V32.239Z" fill="#0783FF"/>
</svg>
