<svg width="42" height="42" viewBox="0 0 42 42" fill="none" xmlns="http://www.w3.org/2000/svg">
<g clip-path="url(#clip0_1414_4629)">
<path d="M23.4164 15.4432C24.0292 15.4432 24.5277 15.9418 24.5277 16.5546C24.5277 17.1684 25.0253 17.666 25.6391 17.666C26.2529 17.666 26.7505 17.1684 26.7505 16.5546C26.7505 14.7161 25.2548 13.2205 23.4164 13.2205H16.608C15.9941 13.2205 15.4966 13.718 15.4966 14.3318C15.4966 14.9456 15.9941 15.4432 16.608 15.4432H23.4164Z" fill="#0783FF"/>
<path d="M35.2692 30.2226C34.9613 29.6916 34.2813 29.5108 33.7502 29.8188C33.7208 29.8358 32.1245 30.7479 29.5754 31.5915L28.4591 28.985C28.2175 28.4208 27.5643 28.1592 26.9999 28.4009C26.4357 28.6425 26.1742 29.2958 26.4158 29.86L27.4239 32.2138C25.596 32.6672 23.4732 33.0029 21.1936 33.0029C18.9185 33.0029 16.7947 32.6658 14.9644 32.211L17.4811 26.3347H25.6391C27.4775 26.3347 28.9732 24.839 28.9732 23.0005C28.9732 21.1621 27.4775 19.6664 25.6391 19.6664H16.7481C16.0665 19.6664 15.4323 19.8723 14.9037 20.2248L11.3725 7.58676C11.2073 6.99561 10.5943 6.65025 10.0031 6.81546C9.41189 6.98061 9.06658 7.59376 9.23173 8.1849L13.4182 23.1682C13.4789 24.3859 14.1962 25.4328 15.2221 25.9634L12.8132 31.5882C10.2663 30.7454 8.66593 29.8355 8.63693 29.8188C8.10602 29.5108 7.42586 29.6916 7.11795 30.2226C6.80999 30.7536 6.99081 31.4336 7.52177 31.7416C9.55237 32.9193 13.0099 34.0443 13.3066 34.0773C15.5136 34.7112 18.2204 35.2257 21.1936 35.2257C24.1667 35.2257 26.8737 34.7112 29.0805 34.0773C29.329 34.0497 32.7797 32.9512 34.8654 31.7416C35.3964 31.4336 35.5772 30.7536 35.2692 30.2226ZM16.7481 21.8892H25.6391C26.2519 21.8892 26.7505 22.3877 26.7505 23.0005C26.7505 23.6134 26.2519 24.1119 25.6391 24.1119H16.759C16.7552 24.1119 16.7514 24.1119 16.7476 24.1119C16.135 24.1116 15.6367 23.6132 15.6367 23.0005C15.6367 22.3877 16.1353 21.8892 16.7481 21.8892Z" fill="#0037D7"/>
</g>
<defs>
<clipPath id="clip0_1414_4629">
<rect width="28.4516" height="28.4516" fill="white" transform="translate(6.96777 6.77417)"/>
</clipPath>
</defs>
</svg>
