<svg width="29" height="28" viewBox="0 0 29 28" fill="none" xmlns="http://www.w3.org/2000/svg">
<g clip-path="url(#clip0_616_167)">
<g clip-path="url(#clip1_616_167)">
<path d="M2.49512 18.8531V8.5542C2.49512 6.6212 4.06212 5.0542 5.99511 5.0542H21.417C23.35 5.0542 24.917 6.6212 24.917 8.5542V18.8531C24.917 20.7861 23.35 22.3531 21.417 22.3531H5.99512C4.06212 22.3531 2.49512 20.7861 2.49512 18.8531Z" stroke="#1D1D1D" stroke-width="1.75" stroke-linejoin="round"/>
<path fill-rule="evenodd" clip-rule="evenodd" d="M13.7072 13.7038C15.2811 13.7038 16.5584 12.4265 16.5584 10.8526C16.5584 9.27879 15.2811 8.00146 13.7072 8.00146C12.1334 8.00146 10.8561 9.27879 10.8561 10.8526C10.8561 12.4265 12.1334 13.7038 13.7072 13.7038ZM14.8477 10.8526C14.8477 10.2254 14.3345 9.71217 13.7072 9.71217C13.08 9.71217 12.5668 10.2254 12.5668 10.8526C12.5668 11.4799 13.08 11.9931 13.7072 11.9931C14.3345 11.9931 14.8477 11.4799 14.8477 10.8526Z" fill="#0033A1"/>
<path fill-rule="evenodd" clip-rule="evenodd" d="M19.4096 18.2543C19.4096 15.8707 15.6346 14.8443 13.7072 14.8443C11.7798 14.8443 8.00488 15.8707 8.00488 18.2543C8.00488 18.8905 8.5206 19.4062 9.15676 19.4062H18.2577C18.8939 19.4062 19.4096 18.8905 19.4096 18.2543ZM13.7072 16.555C12.6521 16.555 11.4083 16.9032 10.595 17.3451C10.4044 17.4487 10.4856 17.6955 10.7025 17.6955H16.7234C16.9403 17.6955 17.0215 17.4487 16.8308 17.3451C16.0172 16.9033 14.7715 16.555 13.7072 16.555Z" fill="#0033A1"/>
</g>
<circle cx="22.4268" cy="6" r="6" fill="white"/>
<path d="M22.4282 4.24219V7.75781" stroke="#0033A1" stroke-width="0.78125" stroke-miterlimit="10" stroke-linecap="round" stroke-linejoin="round"/>
<path d="M20.6704 6H24.186" stroke="#0033A1" stroke-width="0.78125" stroke-miterlimit="10" stroke-linecap="round" stroke-linejoin="round"/>
<mask id="mask0_616_167" style="mask-type:luminance" maskUnits="userSpaceOnUse" x="17" y="1" width="11" height="11">
<path d="M17.4292 1.00122H27.4292V11.0012H17.4292V1.00122Z" fill="white"/>
</mask>
<g mask="url(#mask0_616_167)">
<path d="M24.5553 9.51897C23.9349 9.89475 23.2071 10.1111 22.4289 10.1111C20.159 10.1111 18.3188 8.27097 18.3188 6.00108C18.3188 3.73118 20.159 1.89108 22.4289 1.89108C24.6988 1.89108 26.5389 3.73118 26.5389 6.00108C26.5389 6.84515 26.2786 7.62978 25.8422 8.28248" stroke="#0033A1" stroke-miterlimit="10" stroke-linecap="round" stroke-linejoin="round"/>
</g>
</g>
<defs>
<clipPath id="clip0_616_167">
<rect width="28" height="28" fill="white" transform="translate(0.426758)"/>
</clipPath>
<clipPath id="clip1_616_167">
<rect width="28" height="28" fill="white" transform="translate(0.426758)"/>
</clipPath>
</defs>
</svg>
