<svg width="28" height="28" viewBox="0 0 28 28" fill="none" xmlns="http://www.w3.org/2000/svg">
<path d="M12.5561 11.3577C14.7712 11.3577 16.5669 9.56198 16.5669 7.34683C16.5669 5.13167 14.7712 3.33594 12.5561 3.33594C10.3409 3.33594 8.54517 5.13167 8.54517 7.34683C8.54517 9.56198 10.3409 11.3577 12.5561 11.3577Z" stroke="#1D1D1D" stroke-width="1.75"/>
<path d="M20.4376 15.6896C20.4376 14.9476 19.826 14.3359 19.0739 14.3359H6.01849C5.26645 14.3359 4.65479 14.9476 4.65479 15.6896C4.65479 19.4398 6.54993 22.0569 10.3001 22.0569" stroke="#1D1D1D" stroke-width="1.75" stroke-linecap="round"/>
<path d="M22.3427 18.417H13.8496C13.2959 18.417 12.8469 18.8659 12.8469 19.4197V23.6713C12.8469 24.225 13.2959 24.674 13.8496 24.674H22.3427C22.8965 24.674 23.3454 24.225 23.3454 23.6713V19.4197C23.3454 18.8659 22.8965 18.417 22.3427 18.417Z" stroke="#0033A1" stroke-width="1.75"/>
<path d="M18.0962 23.3503C19.093 23.3503 19.9011 22.5422 19.9011 21.5454C19.9011 20.5486 19.093 19.7405 18.0962 19.7405C17.0993 19.7405 16.2913 20.5486 16.2913 21.5454C16.2913 22.5422 17.0993 23.3503 18.0962 23.3503Z" fill="#1D1D1D"/>
</svg>
