<svg width="42" height="42" viewBox="0 0 42 42" fill="none" xmlns="http://www.w3.org/2000/svg">
<g clip-path="url(#clip0_1414_4627)">
<path d="M33.8412 22.3302C32.9873 21.9765 32.0506 22.1628 31.397 22.8165L27.4365 26.777C27.4429 26.7044 27.4461 26.6311 27.4461 26.557C27.4461 25.1781 26.3243 24.0563 24.9455 24.0563H21.2524L19.2377 23.049C18.3744 22.6173 17.408 22.3892 16.4429 22.3892C15.3105 22.3892 14.1988 22.6972 13.2278 23.2798L12.8206 23.5241C12.5127 22.8551 11.8364 22.3892 11.053 22.3892H7.60771C7.14738 22.3892 6.77417 22.7624 6.77417 23.2227V32.6696C6.77417 33.1299 7.14738 33.5031 7.60771 33.5031H11.053C11.9376 33.5031 12.6855 32.9093 12.9207 32.0996L17.4819 33.4679C17.5596 33.4913 17.6402 33.5031 17.7214 33.5031H26.1189C27.7495 33.5031 29.2625 32.7678 30.2699 31.4855L34.7466 25.7881C35.0556 25.3947 35.2258 24.9026 35.2258 24.4024C35.2258 23.478 34.6953 22.684 33.8412 22.3302ZM11.053 24.0563C11.2062 24.0563 11.3309 24.1809 11.3309 24.3341V25.7234H8.44126V24.0563H11.053ZM11.3309 31.5582C11.3309 31.7114 11.2062 31.836 11.053 31.836H8.44126V27.3905H11.3309V31.5582ZM33.4357 24.7581L28.9591 30.4556C28.2698 31.3329 27.2346 31.836 26.1189 31.836H17.8437L12.998 30.3823V25.3617L14.0855 24.7092C14.7975 24.2821 15.6126 24.0563 16.4429 24.0563C17.1506 24.0563 17.8592 24.2235 18.4921 24.54L20.6828 25.6353C20.7985 25.6932 20.9261 25.7233 21.0555 25.7233H24.9454C25.405 25.7233 25.779 26.0972 25.779 26.5569C25.779 27.0165 25.405 27.3904 24.9454 27.3904H19.9442C19.4838 27.3904 19.1106 27.7636 19.1106 28.2239C19.1106 28.6843 19.4838 29.0575 19.9442 29.0575H27.1682C27.3893 29.0575 27.6012 28.9696 27.7576 28.8133L32.5757 23.9952C32.8212 23.7496 33.0963 23.8261 33.2032 23.8703C33.3101 23.9146 33.5586 24.0551 33.5586 24.4023C33.5587 24.5308 33.515 24.6572 33.4357 24.7581Z" fill="#0037D7"/>
<path d="M11.1255 18.7018C11.5716 19.0501 12.1087 19.2325 12.6588 19.2325C12.8624 19.2325 13.0677 19.2075 13.2709 19.1568L17.026 18.218C17.7907 18.0268 18.3518 17.4011 18.474 16.6431H29.891C30.153 16.6431 30.3997 16.52 30.5572 16.3106L31.6686 14.8329C31.7772 14.6885 31.8359 14.5126 31.8359 14.3319V11.9197C31.8359 11.4594 31.4627 11.0862 31.0024 11.0862H28.2239C27.8901 11.0862 27.5885 11.2853 27.4574 11.5922L27.1179 12.3869H25.9958L25.6563 11.5922C25.5252 11.2853 25.2236 11.0862 24.8898 11.0862H18.474C18.3517 10.3281 17.7906 9.70249 17.026 9.51138L13.2709 8.57259C12.5187 8.38454 11.7367 8.55036 11.1256 9.02754C10.5144 9.50477 10.1638 10.2231 10.1638 10.9986V16.7308C10.1638 17.5062 10.5144 18.2246 11.1255 18.7018ZM24.6789 13.548C24.81 13.8549 25.1116 14.054 25.4454 14.054H27.6682C28.002 14.054 28.3037 13.8549 28.4348 13.548L28.7742 12.7533H30.1689V14.0534L29.475 14.976H18.4993V12.7533H21.2777V13.2205C21.2777 13.6809 21.6509 14.0541 22.1113 14.0541C22.5716 14.0541 22.9448 13.6809 22.9448 13.2205V12.7533H24.3394L24.6789 13.548ZM12.1515 10.3415C12.3002 10.2255 12.4792 10.1647 12.6626 10.1647C12.7304 10.1647 12.7989 10.173 12.8666 10.1899L16.6217 11.1287C16.7456 11.1597 16.8322 11.2705 16.8322 11.3983V11.9198V15.8096V16.3312C16.8322 16.4589 16.7456 16.5697 16.6217 16.6007L12.8666 17.5395C12.6158 17.6022 12.3552 17.547 12.1514 17.3879C11.9478 17.2287 11.8309 16.9892 11.8309 16.7308V14.6982H12.6644C13.1248 14.6982 13.498 14.325 13.498 13.8646C13.498 13.4043 13.1248 13.0311 12.6644 13.0311H11.8309V10.9986C11.8309 10.7401 11.9478 10.5006 12.1515 10.3415Z" fill="#0783FF"/>
</g>
<defs>
<clipPath id="clip0_1414_4627">
<rect width="28.4516" height="28.4516" fill="white" transform="translate(6.77417 6.77417)"/>
</clipPath>
</defs>
</svg>
