<svg width="42" height="42" viewBox="0 0 42 42" fill="none" xmlns="http://www.w3.org/2000/svg">
<path d="M14.904 20.9999C14.5875 20.9999 14.2941 20.8309 14.1349 20.5562C13.9758 20.2824 13.9749 19.9445 14.1322 19.6689C16.1736 16.1026 20.0066 13.887 24.1348 13.887H24.5562C25.047 13.887 25.4453 14.2853 25.4453 14.7761V20.1108C25.4453 20.6015 25.047 20.9999 24.5562 20.9999H14.904ZM23.6671 15.6767C20.8984 15.8092 18.3262 17.1153 16.5942 19.2216H23.6671V15.6767Z" fill="#0783FF"/>
<path d="M27.2235 14.7761V20.1108C27.2235 20.6015 27.6218 20.9999 28.1126 20.9999H33.4473V19.2216H29.0017V15.6652H33.4473V13.887H28.1126C27.6218 13.887 27.2235 14.2853 27.2235 14.7761Z" fill="#0783FF"/>
<path d="M13.6396 28.1128H33.4473V26.3346H13.6396C11.9921 26.3346 10.7384 24.8551 11.0087 23.2289C12.0828 16.7855 17.6033 12.1088 24.1347 12.1088H33.4473V10.3306H24.1347C16.7293 10.3306 10.4717 15.6323 9.25451 22.9373C8.80284 25.6438 10.8914 28.1128 13.6396 28.1128Z" fill="#0037D7"/>
<path d="M8.5521 30.7802C8.5521 31.2719 8.95043 31.6693 9.44122 31.6693H33.4473V29.8911H9.44122C8.95043 29.8911 8.5521 30.2885 8.5521 30.7802Z" fill="#0037D7"/>
</svg>
