<svg width="28" height="28" viewBox="0 0 28 28" fill="none" xmlns="http://www.w3.org/2000/svg">
<path fill-rule="evenodd" clip-rule="evenodd" d="M3.5 7.875C3.5 5.45875 5.45875 3.5 7.875 3.5H20.125C22.5413 3.5 24.5 5.45875 24.5 7.875V10.8026C24.5 11.2859 24.1082 11.6776 23.625 11.6776C23.1418 11.6776 22.75 11.2859 22.75 10.8026V7.875C22.75 6.42525 21.5747 5.25 20.125 5.25H7.875C6.42525 5.25 5.25 6.42525 5.25 7.875V20.125C5.25 21.5747 6.42525 22.75 7.875 22.75H17.8016C18.2849 22.75 18.6766 23.1418 18.6766 23.625C18.6766 24.1082 18.2849 24.5 17.8016 24.5H7.875C5.45875 24.5 3.5 22.5413 3.5 20.125V7.875ZM15.0403 10.5831H16.6328C16.8639 10.5831 17.0771 10.4589 17.1911 10.2579C17.4336 9.8301 17.1246 9.29972 16.6328 9.29972H11.2643C11.0354 9.29972 10.8239 9.42165 10.7091 9.6197C10.4613 10.0475 10.7699 10.5831 11.2643 10.5831H12.6563C13.1255 10.7224 13.5855 11.0264 13.7724 11.6331H11.3724C11.142 11.6331 10.9293 11.7566 10.8151 11.9568C10.571 12.3845 10.8799 12.9164 11.3724 12.9164H13.7318C13.5179 13.5109 12.945 14.033 11.4497 13.8591C11.2264 13.7758 10.9654 13.8207 10.7816 13.9964C10.5254 14.2414 10.5163 14.6475 10.7612 14.9037L11.0038 15.1579L11.0015 15.1646L11.5741 15.7557L14.1945 18.5023C14.4394 18.7585 14.8455 18.7676 15.1017 18.5227C15.2799 18.3523 15.3386 18.1035 15.275 17.8817L15.2845 17.8753L15.2677 17.8577C15.2388 17.7698 15.1902 17.6868 15.122 17.6155L12.7743 15.1545C13.6688 15.0366 15.1623 14.4443 15.4156 12.9164H16.6412C16.8737 12.9164 17.0882 12.7905 17.2014 12.5875C17.4403 12.1598 17.1311 11.6331 16.6412 11.6331H15.3627C15.3086 11.2944 15.2279 10.9121 15.0403 10.5831Z" fill="#1D1D1D"/>
<path d="M21.4531 17.536C21.4531 16.7306 22.1061 16.0776 22.9115 16.0776H23.1335C23.8237 16.0776 24.3831 16.6372 24.3831 17.3273C24.3831 17.7209 24.1976 18.0915 23.8826 18.3274L23.1423 18.8818C22.3335 19.4877 21.8573 20.4392 21.8573 21.4498V21.57C21.8573 22.0532 22.249 22.445 22.7323 22.445C23.2156 22.445 23.6073 22.0532 23.6073 21.57V21.4498C23.6073 20.9905 23.8238 20.558 24.1914 20.2825L24.9317 19.7281C25.6879 19.1617 26.1331 18.2721 26.1331 17.3273C26.1331 15.6706 24.7901 14.3276 23.1335 14.3276H22.9115C21.1395 14.3276 19.7031 15.764 19.7031 17.536V17.5773C19.7031 18.0605 20.0949 18.4523 20.5781 18.4523C21.0614 18.4523 21.4531 18.0605 21.4531 17.5773V17.536Z" fill="#0033A1"/>
<path d="M23.8282 24.8377C23.8282 25.4176 23.3582 25.8877 22.7782 25.8877C22.1984 25.8877 21.7282 25.4176 21.7282 24.8377C21.7282 24.2578 22.1984 23.7877 22.7782 23.7877C23.3582 23.7877 23.8282 24.2578 23.8282 24.8377Z" fill="#0033A1"/>
</svg>
