<svg width="28" height="28" viewBox="0 0 28 28" fill="none" xmlns="http://www.w3.org/2000/svg">
<path d="M15.9712 4.90601H24.3622C25.6509 4.90601 26.6955 5.95067 26.6955 7.23934V21.3229C26.6955 22.6115 25.6509 23.6562 24.3622 23.6562H7.66738M12.5272 7.83534H5.86098M8.59775 13.6797H1.23047M9.60591 19.3415H4.67319" stroke="#1D1D1D" stroke-width="1.75" stroke-linecap="round" stroke-linejoin="round"/>
<path fill-rule="evenodd" clip-rule="evenodd" d="M17.9248 11.3596C17.6102 11.0382 17.0728 10.7743 16.2484 10.7743H15.4861C15.164 10.7743 14.9028 10.5132 14.9028 10.191C14.9028 9.86883 15.164 9.60767 15.4861 9.60767H16.2484H20.3006C20.6228 9.60767 20.884 9.86883 20.884 10.191C20.884 10.5132 20.6228 10.7743 20.3006 10.7743H18.9601C19.2268 11.1181 19.3958 11.5114 19.4652 11.9185H20.264C20.5862 11.9185 20.8474 12.1797 20.8474 12.5018C20.8474 12.824 20.5862 13.0852 20.264 13.0852H19.3924C19.2171 13.6657 18.8329 14.1938 18.2548 14.5639C17.8245 14.8395 17.3016 15.019 16.6969 15.0802L19.0461 18.0062C19.2478 18.2574 19.2077 18.6245 18.9565 18.8262C18.7053 19.0279 18.3381 18.9878 18.1364 18.7366L14.9947 14.8236C14.8441 14.636 14.8241 14.3752 14.9443 14.1668C15.0645 13.9585 15.3003 13.8453 15.5381 13.8818C16.5157 14.032 17.195 13.8572 17.6257 13.5814C17.8428 13.4424 18.0073 13.2717 18.1229 13.0852L15.4495 13.0852C15.1274 13.0852 14.8662 12.824 14.8662 12.5018C14.8662 12.1797 15.1274 11.9185 15.4495 11.9185H18.2667C18.201 11.7172 18.0876 11.5258 17.9248 11.3596Z" fill="#0033A1"/>
</svg>
