<svg width="42" height="42" viewBox="0 0 42 42" fill="none" xmlns="http://www.w3.org/2000/svg">
<path d="M30.7806 33.4475H11.2201C10.5127 33.4475 9.8342 33.1665 9.33398 32.6663C8.83376 32.1661 8.55273 31.4876 8.55273 30.7802V18.3326C8.55273 17.6252 8.83376 16.9468 9.33398 16.4465C9.8342 15.9463 10.5127 15.6653 11.2201 15.6653H30.7806C31.488 15.6653 32.1664 15.9463 32.6667 16.4465C33.1669 16.9468 33.4479 17.6252 33.4479 18.3326V30.7802C33.4479 31.4876 33.1669 32.1661 32.6667 32.6663C32.1664 33.1665 31.488 33.4475 30.7806 33.4475ZM11.2201 17.4435C10.9843 17.4435 10.7581 17.5372 10.5914 17.7039C10.4246 17.8707 10.331 18.0968 10.331 18.3326V30.7802C10.331 31.016 10.4246 31.2422 10.5914 31.4089C10.7581 31.5756 10.9843 31.6693 11.2201 31.6693H30.7806C31.0164 31.6693 31.2425 31.5756 31.4093 31.4089C31.576 31.2422 31.6697 31.016 31.6697 30.7802V18.3326C31.6697 18.0968 31.576 17.8707 31.4093 17.7039C31.2425 17.5372 31.0164 17.4435 30.7806 17.4435H11.2201ZM17.4439 29.002C17.2774 29.0025 17.1141 28.9563 16.9726 28.8686C16.8445 28.7885 16.7389 28.6771 16.6658 28.5449C16.5927 28.4126 16.5544 28.264 16.5548 28.1129V21C16.5552 20.8484 16.5944 20.6995 16.6686 20.5673C16.7428 20.4352 16.8496 20.3242 16.9788 20.2449C17.1079 20.1656 17.2552 20.1207 17.4066 20.1143C17.5581 20.108 17.7086 20.1404 17.844 20.2086L24.9569 23.7651C25.1025 23.8397 25.2247 23.9531 25.3101 24.0927C25.3954 24.2323 25.4406 24.3928 25.4406 24.5564C25.4406 24.72 25.3954 24.8805 25.3101 25.0201C25.2247 25.1598 25.1025 25.2731 24.9569 25.3477L17.844 28.9042C17.7201 28.9676 17.583 29.0011 17.4439 29.002ZM18.333 22.4403V26.6725L22.5652 24.5564L18.333 22.4403Z" fill="#0037D7"/>
<path d="M29.6311 9.49015C29.7979 9.65689 29.8915 9.88304 29.8915 10.1188C29.8915 10.3547 29.7979 10.5808 29.6311 10.7475C29.4644 10.9143 29.2382 11.008 29.0024 11.008H12.9984C12.7626 11.008 12.5364 10.9143 12.3697 10.7475C12.203 10.5808 12.1093 10.3547 12.1093 10.1188C12.1093 9.88304 12.203 9.65689 12.3697 9.49015C12.5364 9.32341 12.7626 9.22974 12.9984 9.22974H29.0024C29.2382 9.22974 29.4644 9.32341 29.6311 9.49015Z" fill="#0783FF"/>
<path d="M31.4093 13.0466C31.5761 13.2133 31.6698 13.4395 31.6698 13.6753C31.6698 13.9111 31.5761 14.1373 31.4093 14.304C31.2426 14.4707 31.0165 14.5644 30.7806 14.5644H11.2202C10.9844 14.5644 10.7582 14.4707 10.5915 14.304C10.4247 14.1373 10.3311 13.9111 10.3311 13.6753C10.3311 13.4395 10.4247 13.2133 10.5915 13.0466C10.7582 12.8799 10.9844 12.7862 11.2202 12.7862H30.7806C31.0165 12.7862 31.2426 12.8799 31.4093 13.0466Z" fill="#0783FF"/>
</svg>
