<svg width="42" height="42" viewBox="0 0 42 42" fill="none" xmlns="http://www.w3.org/2000/svg">
<g clip-path="url(#clip0_1414_4628)">
<path d="M23.628 9.91097C22.971 8.94475 22.3913 8.05584 21.8502 7.24422C21.7729 7.12827 21.6569 7.01233 21.541 6.93503C21.0772 6.62584 20.4588 6.78043 20.1497 7.24422C19.6472 8.05584 19.0675 8.9061 18.3718 9.91097C15.3186 14.3942 10.7581 21.1577 10.7581 25.0226C10.7581 27.8439 11.9175 30.3947 13.7726 32.2498C15.6278 34.0663 18.1786 35.2258 20.9999 35.2258C23.8213 35.2258 26.3721 34.0663 28.2272 32.2112C30.0823 30.3561 31.2418 27.8052 31.2418 24.9839C31.2418 21.119 26.6813 14.3942 23.628 9.91097ZM26.8359 30.8198C25.3286 32.3271 23.2802 33.216 20.9999 33.216C18.7197 33.216 16.6713 32.2885 15.164 30.8198C13.6567 29.3125 12.7678 27.2642 12.7678 24.9839C12.7678 21.7374 17.1351 15.2831 20.0337 10.9931C20.3815 10.4907 20.6907 9.98826 20.9999 9.56313C21.3091 9.98826 21.6183 10.4907 21.9661 10.9931C24.8648 15.3218 29.2321 21.7374 29.2321 24.9839C29.2321 27.2642 28.3045 29.3125 26.8359 30.8198Z" fill="#0037D7"/>
<path d="M26.9904 24.2883C26.4493 24.2497 25.9855 24.6748 25.9469 25.2159C25.9082 26.0662 25.6377 26.8778 25.2125 27.5735C24.7874 28.2691 24.169 28.8875 23.4347 29.274C22.9709 29.5445 22.7777 30.1629 23.0482 30.6267C23.3574 31.1678 23.9758 31.3224 24.4396 31.0518C25.4831 30.4721 26.3333 29.6218 26.9131 28.6556C27.5314 27.6894 27.8793 26.5299 27.9179 25.3318C27.9566 24.7908 27.5314 24.327 26.9904 24.2883Z" fill="#0783FF"/>
</g>
<defs>
<clipPath id="clip0_1414_4628">
<rect width="28.4516" height="28.4516" fill="white" transform="translate(6.77417 6.77417)"/>
</clipPath>
</defs>
</svg>
